<?xml version="1.0" encoding="UTF-8" standalone="no"?>
<!-- source-sha256: 321adc63d811f1f80b276650109a833d60e59ba323dc7b0d77e9826ae53e47b2 -->
<!DOCTYPE svg PUBLIC "-//W3C//DTD SVG 1.1//EN"
 "http://www.w3.org/Graphics/SVG/1.1/DTD/svg11.dtd">
<!-- Generated by graphviz version 16.1.0 (20260904.0139)
 -->
<!-- Title: committee Pages: 1 -->
<svg width="613pt" height="510pt"
 viewBox="0.00 0.00 613.00 510.00" xmlns="http://www.w3.org/2000/svg" xmlns:xlink="http://www.w3.org/1999/xlink">
<g id="graph0" class="graph" transform="scale(1 1) rotate(0) translate(21.6 488.86)">
<title>committee</title>
<polygon fill="white" stroke="none" points="-21.6,21.6 -21.6,-488.86 591.5,-488.86 591.5,21.6 -21.6,21.6"/>
<!-- approve -->
<g id="node1" class="node">
<title>approve</title>
<path fill="#fde68a" stroke="#b45309" stroke-width="1.3" d="M115.12,-36C115.12,-36 23.92,-36 23.92,-36 17.92,-36 11.92,-30 11.92,-24 11.92,-24 11.92,-12 11.92,-12 11.92,-6 17.92,0 23.92,0 23.92,0 115.12,0 115.12,0 121.12,0 127.12,-6 127.12,-12 127.12,-12 127.12,-24 127.12,-24 127.12,-30 121.12,-36 115.12,-36"/>
<text xml:space="preserve" text-anchor="middle" x="69.52" y="-12.4" font-family="Helvetica,sans-Serif" font-size="13.00">Approve</text>
</g>
<!-- approveJob -->
<g id="node12" class="node">
<title>approveJob</title>
<path fill="#eef2ff" stroke="#6366f1" stroke-width="1.3" d="M305.92,-36C305.92,-36 214.72,-36 214.72,-36 208.72,-36 202.72,-30 202.72,-24 202.72,-24 202.72,-12 202.72,-12 202.72,-6 208.72,0 214.72,0 214.72,0 305.92,0 305.92,0 311.92,0 317.92,-6 317.92,-12 317.92,-12 317.92,-24 317.92,-24 317.92,-30 311.92,-36 305.92,-36"/>
<text xml:space="preserve" text-anchor="middle" x="260.32" y="-12.4" font-family="Helvetica,sans-Serif" font-size="13.00">approve job</text>
</g>
<!-- approve&#45;&gt;approveJob -->
<g id="edge1" class="edge">
<title>approve&#45;&gt;approveJob</title>
<path fill="none" stroke="#374151" stroke-width="1.6" d="M127.68,-18C148.02,-18 171.09,-18 192.19,-18"/>
<polygon fill="#374151" stroke="#374151" stroke-width="1.6" points="191.94,-20.8 199.94,-18 191.94,-15.2 191.94,-20.8"/>
</g>
<!-- deny -->
<g id="node2" class="node">
<title>deny</title>
<path fill="#fde68a" stroke="#b45309" stroke-width="1.3" d="M115.12,-87C115.12,-87 23.92,-87 23.92,-87 17.92,-87 11.92,-81 11.92,-75 11.92,-75 11.92,-63 11.92,-63 11.92,-57 17.92,-51 23.92,-51 23.92,-51 115.12,-51 115.12,-51 121.12,-51 127.12,-57 127.12,-63 127.12,-63 127.12,-75 127.12,-75 127.12,-81 121.12,-87 115.12,-87"/>
<text xml:space="preserve" text-anchor="middle" x="69.52" y="-63.4" font-family="Helvetica,sans-Serif" font-size="13.00">Deny</text>
</g>
<!-- closed -->
<g id="node13" class="node">
<title>closed</title>
<path fill="#eef2ff" stroke="#6366f1" stroke-width="1.3" d="M305.92,-88.26C305.92,-88.26 214.72,-88.26 214.72,-88.26 208.72,-88.26 202.72,-82.26 202.72,-76.26 202.72,-76.26 202.72,-61.74 202.72,-61.74 202.72,-55.74 208.72,-49.74 214.72,-49.74 214.72,-49.74 305.92,-49.74 305.92,-49.74 311.92,-49.74 317.92,-55.74 317.92,-61.74 317.92,-61.74 317.92,-76.26 317.92,-76.26 317.92,-82.26 311.92,-88.26 305.92,-88.26"/>
<text xml:space="preserve" text-anchor="middle" x="260.32" y="-70.15" font-family="Helvetica,sans-Serif" font-size="13.00">Issue closed</text>
<text xml:space="preserve" text-anchor="middle" x="260.32" y="-56.65" font-family="Helvetica,sans-Serif" font-size="13.00">as wont&#45;do</text>
</g>
<!-- deny&#45;&gt;closed -->
<g id="edge2" class="edge">
<title>deny&#45;&gt;closed</title>
<path fill="none" stroke="#374151" stroke-width="1.6" d="M127.68,-69C148.02,-69 171.09,-69 192.19,-69"/>
<polygon fill="#374151" stroke="#374151" stroke-width="1.6" points="191.94,-71.8 199.94,-69 191.94,-66.2 191.94,-71.8"/>
</g>
<!-- reply -->
<g id="node3" class="node">
<title>reply</title>
<path fill="#fde68a" stroke="#b45309" stroke-width="1.3" d="M121.8,-209.26C121.8,-209.26 17.25,-209.26 17.25,-209.26 11.25,-209.26 5.25,-203.26 5.25,-197.26 5.25,-197.26 5.25,-182.74 5.25,-182.74 5.25,-176.74 11.25,-170.74 17.25,-170.74 17.25,-170.74 121.8,-170.74 121.8,-170.74 127.8,-170.74 133.8,-176.74 133.8,-182.74 133.8,-182.74 133.8,-197.26 133.8,-197.26 133.8,-203.26 127.8,-209.26 121.8,-209.26"/>
<text xml:space="preserve" text-anchor="middle" x="69.52" y="-191.15" font-family="Helvetica,sans-Serif" font-size="13.00">Other reply to</text>
<text xml:space="preserve" text-anchor="middle" x="69.52" y="-177.65" font-family="Helvetica,sans-Serif" font-size="13.00">an approval post</text>
</g>
<!-- hermes -->
<g id="node10" class="node">
<title>hermes</title>
<path fill="#f3f4f6" stroke="#6b7280" stroke-width="1.3" d="M306.6,-208C306.6,-208 214.05,-208 214.05,-208 208.05,-208 202.05,-202 202.05,-196 202.05,-196 202.05,-184 202.05,-184 202.05,-178 208.05,-172 214.05,-172 214.05,-172 306.6,-172 306.6,-172 312.6,-172 318.6,-178 318.6,-184 318.6,-184 318.6,-196 318.6,-196 318.6,-202 312.6,-208 306.6,-208"/>
<text xml:space="preserve" text-anchor="middle" x="260.32" y="-184.4" font-family="Helvetica,sans-Serif" font-size="13.00">Hermes routes</text>
</g>
<!-- reply&#45;&gt;hermes -->
<g id="edge3" class="edge">
<title>reply&#45;&gt;hermes</title>
<path fill="none" stroke="#374151" stroke-width="1.6" d="M134.44,-190C152.68,-190 172.62,-190 191.11,-190"/>
<polygon fill="#374151" stroke="#374151" stroke-width="1.6" points="191.08,-192.8 199.08,-190 191.08,-187.2 191.08,-192.8"/>
</g>
<!-- forced -->
<g id="node4" class="node">
<title>forced</title>
<path fill="#fde68a" stroke="#b45309" stroke-width="1.3" d="M318.6,-141.26C318.6,-141.26 202.05,-141.26 202.05,-141.26 196.05,-141.26 190.05,-135.26 190.05,-129.26 190.05,-129.26 190.05,-114.74 190.05,-114.74 190.05,-108.74 196.05,-102.74 202.05,-102.74 202.05,-102.74 318.6,-102.74 318.6,-102.74 324.6,-102.74 330.6,-108.74 330.6,-114.74 330.6,-114.74 330.6,-129.26 330.6,-129.26 330.6,-135.26 324.6,-141.26 318.6,-141.26"/>
<text xml:space="preserve" text-anchor="middle" x="260.32" y="-123.15" font-family="Helvetica,sans-Serif" font-size="13.00">patch: or redesign:</text>
<text xml:space="preserve" text-anchor="middle" x="260.32" y="-109.65" font-family="Helvetica,sans-Serif" font-size="13.00">reply</text>
</g>
<!-- patchJob -->
<g id="node15" class="node">
<title>patchJob</title>
<path fill="#eef2ff" stroke="#6366f1" stroke-width="1.3" d="M556.1,-186C556.1,-186 464.9,-186 464.9,-186 458.9,-186 452.9,-180 452.9,-174 452.9,-174 452.9,-162 452.9,-162 452.9,-156 458.9,-150 464.9,-150 464.9,-150 556.1,-150 556.1,-150 562.1,-150 568.1,-156 568.1,-162 568.1,-162 568.1,-174 568.1,-174 568.1,-180 562.1,-186 556.1,-186"/>
<text xml:space="preserve" text-anchor="middle" x="510.5" y="-162.4" font-family="Helvetica,sans-Serif" font-size="13.00">patch job</text>
</g>
<!-- forced&#45;&gt;patchJob -->
<g id="edge7" class="edge">
<title>forced&#45;&gt;patchJob</title>
<path fill="none" stroke="#374151" stroke-width="1.6" d="M331.06,-129C360.55,-132.56 395.17,-137.52 426.1,-144 431.45,-145.12 436.95,-146.4 442.46,-147.78"/>
<polygon fill="#374151" stroke="#374151" stroke-width="1.6" points="441.56,-150.44 450.01,-149.74 442.97,-145.02 441.56,-150.44"/>
</g>
<!-- design -->
<g id="node16" class="node">
<title>design</title>
<path fill="#eef2ff" stroke="#6366f1" stroke-width="1.3" d="M557.9,-132C557.9,-132 463.1,-132 463.1,-132 457.1,-132 451.1,-126 451.1,-120 451.1,-120 451.1,-108 451.1,-108 451.1,-102 457.1,-96 463.1,-96 463.1,-96 557.9,-96 557.9,-96 563.9,-96 569.9,-102 569.9,-108 569.9,-108 569.9,-120 569.9,-120 569.9,-126 563.9,-132 557.9,-132"/>
<text xml:space="preserve" text-anchor="middle" x="510.5" y="-108.4" font-family="Helvetica,sans-Serif" font-size="13.00">Card to Design</text>
</g>
<!-- forced&#45;&gt;design -->
<g id="edge8" class="edge">
<title>forced&#45;&gt;design</title>
<path fill="none" stroke="#374151" stroke-width="1.6" d="M331.12,-119.75C365.29,-118.65 406.3,-117.33 440.38,-116.23"/>
<polygon fill="#374151" stroke="#374151" stroke-width="1.6" points="440.39,-119.03 448.3,-115.97 440.21,-113.43 440.39,-119.03"/>
</g>
<!-- ship -->
<g id="node5" class="node">
<title>ship</title>
<path fill="#fde68a" stroke="#b45309" stroke-width="1.3" d="M115.12,-259C115.12,-259 23.92,-259 23.92,-259 17.92,-259 11.92,-253 11.92,-247 11.92,-247 11.92,-235 11.92,-235 11.92,-229 17.92,-223 23.92,-223 23.92,-223 115.12,-223 115.12,-223 121.12,-223 127.12,-229 127.12,-235 127.12,-235 127.12,-247 127.12,-247 127.12,-253 121.12,-259 115.12,-259"/>
<text xml:space="preserve" text-anchor="middle" x="69.52" y="-235.4" font-family="Helvetica,sans-Serif" font-size="13.00">Ship</text>
</g>
<!-- shipJob -->
<g id="node17" class="node">
<title>shipJob</title>
<path fill="#eef2ff" stroke="#6366f1" stroke-width="1.3" d="M305.92,-259C305.92,-259 214.72,-259 214.72,-259 208.72,-259 202.72,-253 202.72,-247 202.72,-247 202.72,-235 202.72,-235 202.72,-229 208.72,-223 214.72,-223 214.72,-223 305.92,-223 305.92,-223 311.92,-223 317.92,-229 317.92,-235 317.92,-235 317.92,-247 317.92,-247 317.92,-253 311.92,-259 305.92,-259"/>
<text xml:space="preserve" text-anchor="middle" x="260.32" y="-235.4" font-family="Helvetica,sans-Serif" font-size="13.00">ship job</text>
</g>
<!-- ship&#45;&gt;shipJob -->
<g id="edge9" class="edge">
<title>ship&#45;&gt;shipJob</title>
<path fill="none" stroke="#374151" stroke-width="1.6" d="M127.68,-241C148.02,-241 171.09,-241 192.19,-241"/>
<polygon fill="#374151" stroke="#374151" stroke-width="1.6" points="191.94,-243.8 199.94,-241 191.94,-238.2 191.94,-243.8"/>
</g>
<!-- remove -->
<g id="node6" class="node">
<title>remove</title>
<path fill="#fde68a" stroke="#b45309" stroke-width="1.3" d="M115.12,-309C115.12,-309 23.92,-309 23.92,-309 17.92,-309 11.92,-303 11.92,-297 11.92,-297 11.92,-285 11.92,-285 11.92,-279 17.92,-273 23.92,-273 23.92,-273 115.12,-273 115.12,-273 121.12,-273 127.12,-279 127.12,-285 127.12,-285 127.12,-297 127.12,-297 127.12,-303 121.12,-309 115.12,-309"/>
<text xml:space="preserve" text-anchor="middle" x="69.52" y="-285.4" font-family="Helvetica,sans-Serif" font-size="13.00">remove #N</text>
</g>
<!-- removeJob -->
<g id="node18" class="node">
<title>removeJob</title>
<path fill="#eef2ff" stroke="#6366f1" stroke-width="1.3" d="M305.92,-309C305.92,-309 214.72,-309 214.72,-309 208.72,-309 202.72,-303 202.72,-297 202.72,-297 202.72,-285 202.72,-285 202.72,-279 208.72,-273 214.72,-273 214.72,-273 305.92,-273 305.92,-273 311.92,-273 317.92,-279 317.92,-285 317.92,-285 317.92,-297 317.92,-297 317.92,-303 311.92,-309 305.92,-309"/>
<text xml:space="preserve" text-anchor="middle" x="260.32" y="-285.4" font-family="Helvetica,sans-Serif" font-size="13.00">remove job</text>
</g>
<!-- remove&#45;&gt;removeJob -->
<g id="edge10" class="edge">
<title>remove&#45;&gt;removeJob</title>
<path fill="none" stroke="#374151" stroke-width="1.6" d="M127.68,-291C148.02,-291 171.09,-291 192.19,-291"/>
<polygon fill="#374151" stroke="#374151" stroke-width="1.6" points="191.94,-293.8 199.94,-291 191.94,-288.2 191.94,-293.8"/>
</g>
<!-- rtask -->
<g id="node7" class="node">
<title>rtask</title>
<path fill="#fde68a" stroke="#b45309" stroke-width="1.3" d="M127.05,-361.26C127.05,-361.26 12,-361.26 12,-361.26 6,-361.26 0,-355.26 0,-349.26 0,-349.26 0,-334.74 0,-334.74 0,-328.74 6,-322.74 12,-322.74 12,-322.74 127.05,-322.74 127.05,-322.74 133.05,-322.74 139.05,-328.74 139.05,-334.74 139.05,-334.74 139.05,-349.26 139.05,-349.26 139.05,-355.26 133.05,-361.26 127.05,-361.26"/>
<text xml:space="preserve" text-anchor="middle" x="69.52" y="-343.15" font-family="Helvetica,sans-Serif" font-size="13.00">Other reply to</text>
<text xml:space="preserve" text-anchor="middle" x="69.52" y="-329.65" font-family="Helvetica,sans-Serif" font-size="13.00">the candidate post</text>
</g>
<!-- newTask -->
<g id="node19" class="node">
<title>newTask</title>
<path fill="#eef2ff" stroke="#6366f1" stroke-width="1.3" d="M317.1,-361.26C317.1,-361.26 203.55,-361.26 203.55,-361.26 197.55,-361.26 191.55,-355.26 191.55,-349.26 191.55,-349.26 191.55,-334.74 191.55,-334.74 191.55,-328.74 197.55,-322.74 203.55,-322.74 203.55,-322.74 317.1,-322.74 317.1,-322.74 323.1,-322.74 329.1,-328.74 329.1,-334.74 329.1,-334.74 329.1,-349.26 329.1,-349.26 329.1,-355.26 323.1,-361.26 317.1,-361.26"/>
<text xml:space="preserve" text-anchor="middle" x="260.32" y="-343.15" font-family="Helvetica,sans-Serif" font-size="13.00">release&#45;task issue</text>
<text xml:space="preserve" text-anchor="middle" x="260.32" y="-329.65" font-family="Helvetica,sans-Serif" font-size="13.00">in Design</text>
</g>
<!-- rtask&#45;&gt;newTask -->
<g id="edge11" class="edge">
<title>rtask&#45;&gt;newTask</title>
<path fill="none" stroke="#374151" stroke-width="1.6" d="M139.49,-342C152.92,-342 167.09,-342 180.8,-342"/>
<polygon fill="#374151" stroke="#374151" stroke-width="1.6" points="180.76,-344.8 188.76,-342 180.76,-339.2 180.76,-344.8"/>
</g>
<!-- change -->
<g id="node8" class="node">
<title>change</title>
<path fill="#fde68a" stroke="#b45309" stroke-width="1.3" d="M315.6,-467.26C315.6,-467.26 205.05,-467.26 205.05,-467.26 199.05,-467.26 193.05,-461.26 193.05,-455.26 193.05,-455.26 193.05,-440.74 193.05,-440.74 193.05,-434.74 199.05,-428.74 205.05,-428.74 205.05,-428.74 315.6,-428.74 315.6,-428.74 321.6,-428.74 327.6,-434.74 327.6,-440.74 327.6,-440.74 327.6,-455.26 327.6,-455.26 327.6,-461.26 321.6,-467.26 315.6,-467.26"/>
<text xml:space="preserve" text-anchor="middle" x="260.32" y="-449.15" font-family="Helvetica,sans-Serif" font-size="13.00">/change or</text>
<text xml:space="preserve" text-anchor="middle" x="260.32" y="-435.65" font-family="Helvetica,sans-Serif" font-size="13.00">Queue as change</text>
</g>
<!-- changeJob -->
<g id="node20" class="node">
<title>changeJob</title>
<path fill="#eef2ff" stroke="#6366f1" stroke-width="1.3" d="M556.1,-463C556.1,-463 464.9,-463 464.9,-463 458.9,-463 452.9,-457 452.9,-451 452.9,-451 452.9,-439 452.9,-439 452.9,-433 458.9,-427 464.9,-427 464.9,-427 556.1,-427 556.1,-427 562.1,-427 568.1,-433 568.1,-439 568.1,-439 568.1,-451 568.1,-451 568.1,-457 562.1,-463 556.1,-463"/>
<text xml:space="preserve" text-anchor="middle" x="510.5" y="-439.4" font-family="Helvetica,sans-Serif" font-size="13.00">change job</text>
</g>
<!-- change&#45;&gt;changeJob -->
<g id="edge12" class="edge">
<title>change&#45;&gt;changeJob</title>
<path fill="none" stroke="#374151" stroke-width="1.6" d="M328.16,-447.19C363.57,-446.76 406.95,-446.24 442.4,-445.81"/>
<polygon fill="#374151" stroke="#374151" stroke-width="1.6" points="442.26,-448.61 450.23,-445.72 442.19,-443.01 442.26,-448.61"/>
</g>
<!-- ask -->
<g id="node9" class="node">
<title>ask</title>
<path fill="#fde68a" stroke="#b45309" stroke-width="1.3" d="M115.12,-414.26C115.12,-414.26 23.92,-414.26 23.92,-414.26 17.92,-414.26 11.92,-408.26 11.92,-402.26 11.92,-402.26 11.92,-387.74 11.92,-387.74 11.92,-381.74 17.92,-375.74 23.92,-375.74 23.92,-375.74 115.12,-375.74 115.12,-375.74 121.12,-375.74 127.12,-381.74 127.12,-387.74 127.12,-387.74 127.12,-402.26 127.12,-402.26 127.12,-408.26 121.12,-414.26 115.12,-414.26"/>
<text xml:space="preserve" text-anchor="middle" x="69.52" y="-396.15" font-family="Helvetica,sans-Serif" font-size="13.00">Message</text>
<text xml:space="preserve" text-anchor="middle" x="69.52" y="-382.65" font-family="Helvetica,sans-Serif" font-size="13.00">to Hermes</text>
</g>
<!-- hermes2 -->
<g id="node11" class="node">
<title>hermes2</title>
<path fill="#f3f4f6" stroke="#6b7280" stroke-width="1.3" d="M309.97,-413C309.97,-413 210.67,-413 210.67,-413 204.67,-413 198.67,-407 198.67,-401 198.67,-401 198.67,-389 198.67,-389 198.67,-383 204.67,-377 210.67,-377 210.67,-377 309.97,-377 309.97,-377 315.97,-377 321.97,-383 321.97,-389 321.97,-389 321.97,-401 321.97,-401 321.97,-407 315.97,-413 309.97,-413"/>
<text xml:space="preserve" text-anchor="middle" x="260.32" y="-389.4" font-family="Helvetica,sans-Serif" font-size="13.00">Hermes queues</text>
</g>
<!-- ask&#45;&gt;hermes2 -->
<g id="edge13" class="edge">
<title>ask&#45;&gt;hermes2</title>
<path fill="none" stroke="#374151" stroke-width="1.6" d="M127.68,-395C146.63,-395 167.96,-395 187.85,-395"/>
<polygon fill="#374151" stroke="#374151" stroke-width="1.6" points="187.67,-397.8 195.67,-395 187.67,-392.2 187.67,-397.8"/>
</g>
<!-- answer -->
<g id="node14" class="node">
<title>answer</title>
<path fill="#eef2ff" stroke="#6366f1" stroke-width="1.3" d="M557.15,-240.26C557.15,-240.26 463.85,-240.26 463.85,-240.26 457.85,-240.26 451.85,-234.26 451.85,-228.26 451.85,-228.26 451.85,-213.74 451.85,-213.74 451.85,-207.74 457.85,-201.74 463.85,-201.74 463.85,-201.74 557.15,-201.74 557.15,-201.74 563.15,-201.74 569.15,-207.74 569.15,-213.74 569.15,-213.74 569.15,-228.26 569.15,-228.26 569.15,-234.26 563.15,-240.26 557.15,-240.26"/>
<text xml:space="preserve" text-anchor="middle" x="510.5" y="-222.15" font-family="Helvetica,sans-Serif" font-size="13.00">Answer in chat</text>
<text xml:space="preserve" text-anchor="middle" x="510.5" y="-208.65" font-family="Helvetica,sans-Serif" font-size="13.00">card stays</text>
</g>
<!-- hermes&#45;&gt;answer -->
<g id="edge4" class="edge">
<title>hermes&#45;&gt;answer</title>
<path fill="none" stroke="#374151" stroke-width="1.6" d="M319.2,-197.23C355.75,-201.79 403.14,-207.71 441.49,-212.5"/>
<polygon fill="#374151" stroke="#374151" stroke-width="1.6" points="440.85,-215.25 449.13,-213.46 441.54,-209.69 440.85,-215.25"/>
<text xml:space="preserve" text-anchor="middle" x="390.85" y="-211.64" font-family="Helvetica,sans-Serif" font-size="11.00">answer</text>
</g>
<!-- hermes&#45;&gt;patchJob -->
<g id="edge5" class="edge">
<title>hermes&#45;&gt;patchJob</title>
<path fill="none" stroke="#374151" stroke-width="1.6" d="M319.2,-184.87C356.01,-181.61 403.82,-177.37 442.31,-173.96"/>
<polygon fill="#374151" stroke="#374151" stroke-width="1.6" points="442.26,-176.77 449.98,-173.28 441.77,-171.19 442.26,-176.77"/>
<text xml:space="preserve" text-anchor="middle" x="390.85" y="-183.17" font-family="Helvetica,sans-Serif" font-size="11.00">patch</text>
</g>
<!-- hermes&#45;&gt;design -->
<g id="edge6" class="edge">
<title>hermes&#45;&gt;design</title>
<path fill="none" stroke="#374151" stroke-width="1.6" d="M319.15,-172.19C331.2,-168.49 343.81,-164.61 355.6,-161 383.55,-152.43 414.37,-143.02 441.04,-134.88"/>
<polygon fill="#374151" stroke="#374151" stroke-width="1.6" points="441.51,-137.66 448.35,-132.65 439.88,-132.3 441.51,-137.66"/>
<text xml:space="preserve" text-anchor="middle" x="390.85" y="-162.55" font-family="Helvetica,sans-Serif" font-size="11.00">redesign</text>
</g>
<!-- hermes2&#45;&gt;changeJob -->
<g id="edge15" class="edge">
<title>hermes2&#45;&gt;changeJob</title>
<path fill="none" stroke="#374151" stroke-width="1.6" d="M322.35,-407.3C358.85,-414.65 405.25,-424 442.72,-431.55"/>
<polygon fill="#374151" stroke="#374151" stroke-width="1.6" points="441.77,-434.21 450.17,-433.05 442.88,-428.72 441.77,-434.21"/>
<text xml:space="preserve" text-anchor="middle" x="390.85" y="-428.95" font-family="Helvetica,sans-Serif" font-size="11.00">factory change</text>
</g>
<!-- adhocJob -->
<g id="node21" class="node">
<title>adhocJob</title>
<path fill="#eef2ff" stroke="#6366f1" stroke-width="1.3" d="M556.1,-410C556.1,-410 464.9,-410 464.9,-410 458.9,-410 452.9,-404 452.9,-398 452.9,-398 452.9,-386 452.9,-386 452.9,-380 458.9,-374 464.9,-374 464.9,-374 556.1,-374 556.1,-374 562.1,-374 568.1,-380 568.1,-386 568.1,-386 568.1,-398 568.1,-398 568.1,-404 562.1,-410 556.1,-410"/>
<text xml:space="preserve" text-anchor="middle" x="510.5" y="-386.4" font-family="Helvetica,sans-Serif" font-size="13.00">adhoc job</text>
</g>
<!-- hermes2&#45;&gt;adhocJob -->
<g id="edge14" class="edge">
<title>hermes2&#45;&gt;adhocJob</title>
<path fill="none" stroke="#374151" stroke-width="1.6" d="M322.35,-394.26C358.69,-393.82 404.86,-393.26 442.24,-392.81"/>
<polygon fill="#374151" stroke="#374151" stroke-width="1.6" points="442.15,-395.61 450.12,-392.72 442.09,-390.01 442.15,-395.61"/>
<text xml:space="preserve" text-anchor="middle" x="390.85" y="-395.41" font-family="Helvetica,sans-Serif" font-size="11.00">task</text>
</g>
</g>
</svg>
