<?xml version="1.0" encoding="UTF-8" standalone="no"?>
<!-- source-sha256: a39d7eb7f9da827194765f02486cfc0cc636067f21ea0c1637a939de936c92f6 -->
<!DOCTYPE svg PUBLIC "-//W3C//DTD SVG 1.1//EN"
 "http://www.w3.org/Graphics/SVG/1.1/DTD/svg11.dtd">
<!-- Generated by graphviz version 2.43.0 (0)
 -->
<!-- Title: hardening Pages: 1 -->
<svg width="1497pt" height="344pt"
 viewBox="0.00 0.00 1497.20 344.20" xmlns="http://www.w3.org/2000/svg" xmlns:xlink="http://www.w3.org/1999/xlink">
<g id="graph0" class="graph" transform="scale(1 1) rotate(0) translate(21.6 322.6)">
<title>hardening</title>
<polygon fill="white" stroke="transparent" points="-21.6,21.6 -21.6,-322.6 1475.6,-322.6 1475.6,21.6 -21.6,21.6"/>
<g id="clust1" class="cluster">
<title>cluster_harden</title>
<path fill="white" stroke="#c7d2fe" d="M139,-52C139,-52 483,-52 483,-52 489,-52 495,-58 495,-64 495,-64 495,-133 495,-133 495,-139 489,-145 483,-145 483,-145 139,-145 139,-145 133,-145 127,-139 127,-133 127,-133 127,-64 127,-64 127,-58 133,-52 139,-52"/>
<text text-anchor="middle" x="311" y="-131.4" font-family="Helvetica,sans-Serif" font-size="12.00">Hardening job</text>
</g>
<g id="clust2" class="cluster">
<title>cluster_merge</title>
<path fill="white" stroke="#c7d2fe" d="M608,-52C608,-52 1289.5,-52 1289.5,-52 1295.5,-52 1301.5,-58 1301.5,-64 1301.5,-64 1301.5,-281 1301.5,-281 1301.5,-287 1295.5,-293 1289.5,-293 1289.5,-293 608,-293 608,-293 602,-293 596,-287 596,-281 596,-281 596,-64 596,-64 596,-58 602,-52 608,-52"/>
<text text-anchor="middle" x="948.75" y="-279.4" font-family="Helvetica,sans-Serif" font-size="12.00">Merge job: up to three Merging cards of one base, oldest first</text>
</g>
<!-- HM -->
<g id="node1" class="node">
<title>HM</title>
<path fill="#eef2ff" stroke="#6366f1" stroke-width="1.3" d="M282,-109C282,-109 147,-109 147,-109 141,-109 135,-103 135,-97 135,-97 135,-79 135,-79 135,-73 141,-67 147,-67 147,-67 282,-67 282,-67 288,-67 294,-73 294,-79 294,-79 294,-97 294,-97 294,-103 288,-109 282,-109"/>
<text text-anchor="middle" x="214.5" y="-91.6" font-family="Helvetica,sans-Serif" font-size="13.00">Merge new branch</text>
<text text-anchor="middle" x="214.5" y="-77.6" font-family="Helvetica,sans-Serif" font-size="13.00">commits and the base</text>
</g>
<!-- HH -->
<g id="node2" class="node">
<title>HH</title>
<path fill="#eef2ff" stroke="#6366f1" stroke-width="1.3" d="M475,-116C475,-116 347,-116 347,-116 341,-116 335,-110 335,-104 335,-104 335,-72 335,-72 335,-66 341,-60 347,-60 347,-60 475,-60 475,-60 481,-60 487,-66 487,-72 487,-72 487,-104 487,-104 487,-110 481,-116 475,-116"/>
<text text-anchor="middle" x="411" y="-98.6" font-family="Helvetica,sans-Serif" font-size="13.00">Hardening session</text>
<text text-anchor="middle" x="411" y="-84.6" font-family="Helvetica,sans-Serif" font-size="13.00">attack, /code&#45;review,</text>
<text text-anchor="middle" x="411" y="-70.6" font-family="Helvetica,sans-Serif" font-size="13.00">fix every finding</text>
</g>
<!-- HM&#45;&gt;HH -->
<g id="edge1" class="edge">
<title>HM&#45;&gt;HH</title>
<path fill="none" stroke="#374151" stroke-width="1.8" d="M294.05,-88C304.8,-88 315.88,-88 326.71,-88"/>
<polygon fill="#374151" stroke="#374151" stroke-width="1.8" points="326.94,-90.8 334.94,-88 326.94,-85.2 326.94,-90.8"/>
</g>
<!-- MM -->
<g id="node3" class="node">
<title>MM</title>
<path fill="#eef2ff" stroke="#6366f1" stroke-width="1.3" d="M760,-109C760,-109 616,-109 616,-109 610,-109 604,-103 604,-97 604,-97 604,-79 604,-79 604,-73 610,-67 616,-67 616,-67 760,-67 760,-67 766,-67 772,-73 772,-79 772,-79 772,-97 772,-97 772,-103 766,-109 760,-109"/>
<text text-anchor="middle" x="688" y="-91.6" font-family="Helvetica,sans-Serif" font-size="13.00">Merge each card</text>
<text text-anchor="middle" x="688" y="-77.6" font-family="Helvetica,sans-Serif" font-size="13.00">into a clone of the base</text>
</g>
<!-- HM&#45;&gt;MM -->
<g id="edge10" class="edge">
<title>HM&#45;&gt;MM</title>
<path fill="none" stroke="#6b7280" stroke-width="1.3" stroke-dasharray="5,2" d="M244.7,-66.7C267.88,-51.17 301.81,-31.44 335,-23 439.38,3.55 563.77,-35.64 633.23,-63.73"/>
<polygon fill="#6b7280" stroke="#6b7280" stroke-width="1.3" points="632.55,-66.48 641.01,-66.92 634.68,-61.3 632.55,-66.48"/>
<text text-anchor="middle" x="411" y="-38.2" font-family="Helvetica,sans-Serif" font-size="11.00" fill="#6b7280">docs only:</text>
<text text-anchor="middle" x="411" y="-26.2" font-family="Helvetica,sans-Serif" font-size="11.00" fill="#6b7280">no session</text>
</g>
<!-- HH&#45;&gt;MM -->
<g id="edge4" class="edge">
<title>HH&#45;&gt;MM</title>
<path fill="none" stroke="#374151" stroke-width="1.8" d="M487.14,-88C520.57,-88 560.22,-88 595.36,-88"/>
<polygon fill="#374151" stroke="#374151" stroke-width="1.8" points="595.72,-90.8 603.72,-88 595.72,-85.2 595.72,-90.8"/>
<text text-anchor="middle" x="545.5" y="-91.2" font-family="Helvetica,sans-Serif" font-size="11.00">Merging column</text>
</g>
<!-- MM&#45;&gt;MM -->
<g id="edge5" class="edge">
<title>MM&#45;&gt;MM</title>
<path fill="none" stroke="#dc2626" stroke-width="1.3" stroke-dasharray="5,2" d="M663.04,-109.29C657.49,-122.02 665.81,-134 688,-134 705.51,-134 714.38,-126.54 714.62,-117.14"/>
<polygon fill="#dc2626" stroke="#dc2626" stroke-width="1.3" points="717.35,-116.54 712.96,-109.29 711.88,-117.7 717.35,-116.54"/>
<text text-anchor="middle" x="688" y="-149.2" font-family="Helvetica,sans-Serif" font-size="11.00" fill="#dc2626">conflict: the merge</text>
<text text-anchor="middle" x="688" y="-137.2" font-family="Helvetica,sans-Serif" font-size="11.00" fill="#dc2626">session resolves it</text>
</g>
<!-- MC -->
<g id="node4" class="node">
<title>MC</title>
<path fill="#eef2ff" stroke="#6366f1" stroke-width="1.3" d="M1038,-116C1038,-116 912,-116 912,-116 906,-116 900,-110 900,-104 900,-104 900,-72 900,-72 900,-66 906,-60 912,-60 912,-60 1038,-60 1038,-60 1044,-60 1050,-66 1050,-72 1050,-72 1050,-104 1050,-104 1050,-110 1044,-116 1038,-116"/>
<text text-anchor="middle" x="975" y="-98.6" font-family="Helvetica,sans-Serif" font-size="13.00">Merge checkpoint</text>
<text text-anchor="middle" x="975" y="-84.6" font-family="Helvetica,sans-Serif" font-size="13.00">full suite, typecheck,</text>
<text text-anchor="middle" x="975" y="-70.6" font-family="Helvetica,sans-Serif" font-size="13.00">playtest, build</text>
</g>
<!-- MM&#45;&gt;MC -->
<g id="edge2" class="edge">
<title>MM&#45;&gt;MC</title>
<path fill="none" stroke="#374151" stroke-width="1.8" d="M772.2,-88C809.78,-88 854.05,-88 891.54,-88"/>
<polygon fill="#374151" stroke="#374151" stroke-width="1.8" points="891.92,-90.8 899.92,-88 891.92,-85.2 891.92,-90.8"/>
</g>
<!-- MC&#45;&gt;MM -->
<g id="edge6" class="edge">
<title>MC&#45;&gt;MM</title>
<path fill="none" stroke="#dc2626" stroke-width="1.3" stroke-dasharray="5,2" d="M899.86,-89.72C893.14,-89.84 886.45,-89.93 880,-90 840.89,-90.42 831.11,-90.38 792,-90 788.18,-89.96 784.27,-89.92 780.33,-89.87"/>
<polygon fill="#dc2626" stroke="#dc2626" stroke-width="1.3" points="780.24,-87.07 772.2,-89.75 780.16,-92.66 780.24,-87.07"/>
<text text-anchor="middle" x="836" y="-106.2" font-family="Helvetica,sans-Serif" font-size="11.00" fill="#dc2626">failure: back into</text>
<text text-anchor="middle" x="836" y="-94.2" font-family="Helvetica,sans-Serif" font-size="11.00" fill="#dc2626">the merge session</text>
</g>
<!-- MP -->
<g id="node5" class="node">
<title>MP</title>
<path fill="#eef2ff" stroke="#6366f1" stroke-width="1.3" d="M1281.5,-109C1281.5,-109 1190.5,-109 1190.5,-109 1184.5,-109 1178.5,-103 1178.5,-97 1178.5,-97 1178.5,-79 1178.5,-79 1178.5,-73 1184.5,-67 1190.5,-67 1190.5,-67 1281.5,-67 1281.5,-67 1287.5,-67 1293.5,-73 1293.5,-79 1293.5,-79 1293.5,-97 1293.5,-97 1293.5,-103 1287.5,-109 1281.5,-109"/>
<text text-anchor="middle" x="1236" y="-91.6" font-family="Helvetica,sans-Serif" font-size="13.00">Push the base</text>
<text text-anchor="middle" x="1236" y="-77.6" font-family="Helvetica,sans-Serif" font-size="13.00">rebuild /dev/</text>
</g>
<!-- MC&#45;&gt;MP -->
<g id="edge3" class="edge">
<title>MC&#45;&gt;MP</title>
<path fill="none" stroke="#374151" stroke-width="1.8" d="M1050.22,-88C1088.16,-88 1133.89,-88 1170.37,-88"/>
<polygon fill="#374151" stroke="#374151" stroke-width="1.8" points="1170.48,-90.8 1178.48,-88 1170.48,-85.2 1170.48,-90.8"/>
</g>
<!-- XS -->
<g id="node8" class="node">
<title>XS</title>
<path fill="#f3f4f6" stroke="#6b7280" stroke-width="1.3" d="M1307,-42C1307,-42 1165,-42 1165,-42 1159,-42 1153,-36 1153,-30 1153,-30 1153,-12 1153,-12 1153,-6 1159,0 1165,0 1165,0 1307,0 1307,0 1313,0 1319,-6 1319,-12 1319,-12 1319,-30 1319,-30 1319,-36 1313,-42 1307,-42"/>
<text text-anchor="middle" x="1236" y="-24.6" font-family="Helvetica,sans-Serif" font-size="13.00">factory&#45;stuck</text>
<text text-anchor="middle" x="1236" y="-10.6" font-family="Helvetica,sans-Serif" font-size="13.00">every card of the batch</text>
</g>
<!-- MC&#45;&gt;XS -->
<g id="edge12" class="edge">
<title>MC&#45;&gt;XS</title>
<path fill="none" stroke="#6b7280" stroke-width="1.3" stroke-dasharray="5,2" d="M1050.22,-68.8C1079.98,-61.1 1114.55,-52.16 1145.67,-44.11"/>
<polygon fill="#6b7280" stroke="#6b7280" stroke-width="1.3" points="1146.46,-46.8 1153.51,-42.08 1145.06,-41.37 1146.46,-46.8"/>
<text text-anchor="middle" x="1101.5" y="-66.2" font-family="Helvetica,sans-Serif" font-size="11.00" fill="#6b7280">budget spent</text>
</g>
<!-- MP&#45;&gt;MM -->
<g id="edge7" class="edge">
<title>MP&#45;&gt;MM</title>
<path fill="none" stroke="#dc2626" stroke-width="1.3" stroke-dasharray="5,2" d="M1178.42,-103.51C1142.06,-112.66 1093.62,-123.34 1050,-128 935.94,-140.19 904.7,-142.37 792,-121 779.47,-118.62 766.34,-115.19 753.81,-111.42"/>
<polygon fill="#dc2626" stroke="#dc2626" stroke-width="1.3" points="754.57,-108.72 746.1,-109.04 752.92,-114.07 754.57,-108.72"/>
<text text-anchor="middle" x="975" y="-152.2" font-family="Helvetica,sans-Serif" font-size="11.00" fill="#dc2626">base moved:</text>
<text text-anchor="middle" x="975" y="-140.2" font-family="Helvetica,sans-Serif" font-size="11.00" fill="#dc2626">merge it in, check again</text>
</g>
<!-- MP&#45;&gt;MM -->
<g id="edge8" class="edge">
<title>MP&#45;&gt;MM</title>
<path fill="none" stroke="#dc2626" stroke-width="1.3" stroke-dasharray="5,2" d="M1198.19,-109.01C1161.86,-128.44 1104.06,-155.94 1050,-167 936.74,-190.17 900.26,-174.54 792,-134 774.9,-127.6 756.6,-119.76 740.23,-112.38"/>
<polygon fill="#dc2626" stroke="#dc2626" stroke-width="1.3" points="741.3,-109.79 732.86,-109.03 738.99,-114.89 741.3,-109.79"/>
<text text-anchor="middle" x="975" y="-192.2" font-family="Helvetica,sans-Serif" font-size="11.00" fill="#dc2626">cards left: the next</text>
<text text-anchor="middle" x="975" y="-180.2" font-family="Helvetica,sans-Serif" font-size="11.00" fill="#dc2626">job takes the next batch</text>
</g>
<!-- XN -->
<g id="node9" class="node">
<title>XN</title>
<path fill="#f3f4f6" stroke="#6b7280" stroke-width="1.3" d="M1442,-106C1442,-106 1372,-106 1372,-106 1366,-106 1360,-100 1360,-94 1360,-94 1360,-82 1360,-82 1360,-76 1366,-70 1372,-70 1372,-70 1442,-70 1442,-70 1448,-70 1454,-76 1454,-82 1454,-82 1454,-94 1454,-94 1454,-100 1448,-106 1442,-106"/>
<text text-anchor="middle" x="1407" y="-84.6" font-family="Helvetica,sans-Serif" font-size="13.00">Done</text>
</g>
<!-- MP&#45;&gt;XN -->
<g id="edge13" class="edge">
<title>MP&#45;&gt;XN</title>
<path fill="none" stroke="#6b7280" stroke-width="1.3" stroke-dasharray="5,2" d="M1293.74,-88C1312.37,-88 1333.02,-88 1351.48,-88"/>
<polygon fill="#6b7280" stroke="#6b7280" stroke-width="1.3" points="1351.79,-90.8 1359.79,-88 1351.79,-85.2 1351.79,-90.8"/>
</g>
<!-- XA -->
<g id="node6" class="node">
<title>XA</title>
<path fill="#f3f4f6" stroke="#6b7280" stroke-width="1.3" d="M82,-106C82,-106 12,-106 12,-106 6,-106 0,-100 0,-94 0,-94 0,-82 0,-82 0,-76 6,-70 12,-70 12,-70 82,-70 82,-70 88,-70 94,-76 94,-82 94,-82 94,-94 94,-94 94,-100 88,-106 82,-106"/>
<text text-anchor="middle" x="47" y="-84.6" font-family="Helvetica,sans-Serif" font-size="13.00">Approve</text>
</g>
<!-- XA&#45;&gt;HM -->
<g id="edge9" class="edge">
<title>XA&#45;&gt;HM</title>
<path fill="none" stroke="#6b7280" stroke-width="1.3" stroke-dasharray="5,2" d="M94.1,-88C104.34,-88 115.51,-88 126.78,-88"/>
<polygon fill="#6b7280" stroke="#6b7280" stroke-width="1.3" points="127,-90.8 135,-88 127,-85.2 127,-90.8"/>
</g>
<!-- XO -->
<g id="node7" class="node">
<title>XO</title>
<path fill="#f3f4f6" stroke="#6b7280" stroke-width="1.3" d="M454,-189C454,-189 368,-189 368,-189 362,-189 356,-183 356,-177 356,-177 356,-165 356,-165 356,-159 362,-153 368,-153 368,-153 454,-153 454,-153 460,-153 466,-159 466,-165 466,-165 466,-177 466,-177 466,-183 460,-189 454,-189"/>
<text text-anchor="middle" x="411" y="-167.6" font-family="Helvetica,sans-Serif" font-size="13.00">factory merge</text>
</g>
<!-- XO&#45;&gt;MM -->
<g id="edge11" class="edge">
<title>XO&#45;&gt;MM</title>
<path fill="none" stroke="#6b7280" stroke-width="1.3" stroke-dasharray="5,2" d="M466.13,-157.06C475.77,-154.46 485.7,-151.71 495,-149 534.96,-137.36 579.26,-123.36 615.22,-111.71"/>
<polygon fill="#6b7280" stroke="#6b7280" stroke-width="1.3" points="616.49,-114.25 623.24,-109.11 614.76,-108.92 616.49,-114.25"/>
</g>
</g>
</svg>
