<?xml version="1.0" encoding="UTF-8" standalone="no"?>
<!-- source-sha256: 319404df8d8182d0737386ffcec44a817ee34dd2e07e4340c7dbb79fff0ce8dc -->
<!DOCTYPE svg PUBLIC "-//W3C//DTD SVG 1.1//EN"
 "http://www.w3.org/Graphics/SVG/1.1/DTD/svg11.dtd">
<!-- Generated by graphviz version 2.43.0 (0)
 -->
<!-- Title: hardening Pages: 1 -->
<svg width="1929pt" height="423pt"
 viewBox="0.00 0.00 1929.20 422.84" xmlns="http://www.w3.org/2000/svg" xmlns:xlink="http://www.w3.org/1999/xlink">
<g id="graph0" class="graph" transform="scale(1 1) rotate(0) translate(21.6 401.24)">
<title>hardening</title>
<polygon fill="white" stroke="transparent" points="-21.6,21.6 -21.6,-401.24 1907.6,-401.24 1907.6,21.6 -21.6,21.6"/>
<g id="clust1" class="cluster">
<title>cluster_harden</title>
<path fill="white" stroke="#c7d2fe" d="M139,-31.64C139,-31.64 483,-31.64 483,-31.64 489,-31.64 495,-37.64 495,-43.64 495,-43.64 495,-112.64 495,-112.64 495,-118.64 489,-124.64 483,-124.64 483,-124.64 139,-124.64 139,-124.64 133,-124.64 127,-118.64 127,-112.64 127,-112.64 127,-43.64 127,-43.64 127,-37.64 133,-31.64 139,-31.64"/>
<text text-anchor="middle" x="311" y="-111.04" font-family="Helvetica,sans-Serif" font-size="12.00">Hardening job</text>
</g>
<g id="clust2" class="cluster">
<title>cluster_merge</title>
<path fill="white" stroke="#c7d2fe" d="M999,-76.64C999,-76.64 1721.5,-76.64 1721.5,-76.64 1727.5,-76.64 1733.5,-82.64 1733.5,-88.64 1733.5,-88.64 1733.5,-359.64 1733.5,-359.64 1733.5,-365.64 1727.5,-371.64 1721.5,-371.64 1721.5,-371.64 999,-371.64 999,-371.64 993,-371.64 987,-365.64 987,-359.64 987,-359.64 987,-88.64 987,-88.64 987,-82.64 993,-76.64 999,-76.64"/>
<text text-anchor="middle" x="1360.25" y="-358.04" font-family="Helvetica,sans-Serif" font-size="12.00">Merge job: up to three Merging cards of one base, oldest first</text>
</g>
<!-- HM -->
<g id="node1" class="node">
<title>HM</title>
<path fill="#eef2ff" stroke="#6366f1" stroke-width="1.3" d="M282,-88.64C282,-88.64 147,-88.64 147,-88.64 141,-88.64 135,-82.64 135,-76.64 135,-76.64 135,-58.64 135,-58.64 135,-52.64 141,-46.64 147,-46.64 147,-46.64 282,-46.64 282,-46.64 288,-46.64 294,-52.64 294,-58.64 294,-58.64 294,-76.64 294,-76.64 294,-82.64 288,-88.64 282,-88.64"/>
<text text-anchor="middle" x="214.5" y="-71.24" font-family="Helvetica,sans-Serif" font-size="13.00">Merge new branch</text>
<text text-anchor="middle" x="214.5" y="-57.24" font-family="Helvetica,sans-Serif" font-size="13.00">commits and the base</text>
</g>
<!-- HH -->
<g id="node2" class="node">
<title>HH</title>
<path fill="#eef2ff" stroke="#6366f1" stroke-width="1.3" d="M475,-95.64C475,-95.64 347,-95.64 347,-95.64 341,-95.64 335,-89.64 335,-83.64 335,-83.64 335,-51.64 335,-51.64 335,-45.64 341,-39.64 347,-39.64 347,-39.64 475,-39.64 475,-39.64 481,-39.64 487,-45.64 487,-51.64 487,-51.64 487,-83.64 487,-83.64 487,-89.64 481,-95.64 475,-95.64"/>
<text text-anchor="middle" x="411" y="-78.24" font-family="Helvetica,sans-Serif" font-size="13.00">Hardening session</text>
<text text-anchor="middle" x="411" y="-64.24" font-family="Helvetica,sans-Serif" font-size="13.00">attack, /code&#45;review,</text>
<text text-anchor="middle" x="411" y="-50.24" font-family="Helvetica,sans-Serif" font-size="13.00">fix every finding</text>
</g>
<!-- HM&#45;&gt;HH -->
<g id="edge1" class="edge">
<title>HM&#45;&gt;HH</title>
<path fill="none" stroke="#374151" stroke-width="1.8" d="M294.05,-67.64C304.8,-67.64 315.88,-67.64 326.71,-67.64"/>
<polygon fill="#374151" stroke="#374151" stroke-width="1.8" points="326.94,-70.44 334.94,-67.64 326.94,-64.84 326.94,-70.44"/>
</g>
<!-- MM -->
<g id="node3" class="node">
<title>MM</title>
<path fill="#eef2ff" stroke="#6366f1" stroke-width="1.3" d="M1151,-133.64C1151,-133.64 1007,-133.64 1007,-133.64 1001,-133.64 995,-127.64 995,-121.64 995,-121.64 995,-103.64 995,-103.64 995,-97.64 1001,-91.64 1007,-91.64 1007,-91.64 1151,-91.64 1151,-91.64 1157,-91.64 1163,-97.64 1163,-103.64 1163,-103.64 1163,-121.64 1163,-121.64 1163,-127.64 1157,-133.64 1151,-133.64"/>
<text text-anchor="middle" x="1079" y="-116.24" font-family="Helvetica,sans-Serif" font-size="13.00">Merge each card</text>
<text text-anchor="middle" x="1079" y="-102.24" font-family="Helvetica,sans-Serif" font-size="13.00">into a clone of the base</text>
</g>
<!-- HM&#45;&gt;MM -->
<g id="edge13" class="edge">
<title>HM&#45;&gt;MM</title>
<path fill="none" stroke="#6b7280" stroke-width="1.3" stroke-dasharray="5,2" d="M264.84,-46.61C286.02,-38.66 311.31,-30.59 335,-26.64 549.37,9.11 609.54,8.6 824,-26.64 895.01,-38.31 972.86,-67.23 1023.41,-88.33"/>
<polygon fill="#6b7280" stroke="#6b7280" stroke-width="1.3" points="1022.52,-90.99 1030.98,-91.51 1024.69,-85.83 1022.52,-90.99"/>
<text text-anchor="middle" x="548" y="-18.84" font-family="Helvetica,sans-Serif" font-size="11.00" fill="#6b7280">docs only:</text>
<text text-anchor="middle" x="548" y="-6.84" font-family="Helvetica,sans-Serif" font-size="11.00" fill="#6b7280">no session</text>
</g>
<!-- HH&#45;&gt;MM -->
<g id="edge4" class="edge">
<title>HH&#45;&gt;MM</title>
<path fill="none" stroke="#374151" stroke-width="1.8" d="M455.65,-95.8C494.22,-118.9 552.92,-149.82 609,-162.64 745.52,-193.84 908.94,-161.04 1002.39,-135.82"/>
<polygon fill="#374151" stroke="#374151" stroke-width="1.8" points="1003.4,-138.45 1010.38,-133.64 1001.93,-133.05 1003.4,-138.45"/>
<text text-anchor="middle" x="716.5" y="-177.84" font-family="Helvetica,sans-Serif" font-size="11.00">Merging column</text>
</g>
<!-- CU -->
<g id="node6" class="node">
<title>CU</title>
<path fill="#eef2ff" stroke="#6366f1" stroke-width="1.3" d="M812,-95.64C812,-95.64 621,-95.64 621,-95.64 615,-95.64 609,-89.64 609,-83.64 609,-83.64 609,-51.64 609,-51.64 609,-45.64 615,-39.64 621,-39.64 621,-39.64 812,-39.64 812,-39.64 818,-39.64 824,-45.64 824,-51.64 824,-51.64 824,-83.64 824,-83.64 824,-89.64 818,-95.64 812,-95.64"/>
<text text-anchor="middle" x="716.5" y="-78.24" font-family="Helvetica,sans-Serif" font-size="13.00">Catch&#45;up job, one at a time</text>
<text text-anchor="middle" x="716.5" y="-64.24" font-family="Helvetica,sans-Serif" font-size="13.00">merge the base into the branch</text>
<text text-anchor="middle" x="716.5" y="-50.24" font-family="Helvetica,sans-Serif" font-size="13.00">of each of the next six cards</text>
</g>
<!-- HH&#45;&gt;CU -->
<g id="edge17" class="edge">
<title>HH&#45;&gt;CU</title>
<path fill="none" stroke="#6b7280" stroke-width="1.3" stroke-dasharray="5,2" d="M487.02,-67.64C521.36,-67.64 562.8,-67.64 600.91,-67.64"/>
<polygon fill="#6b7280" stroke="#6b7280" stroke-width="1.3" points="600.99,-70.44 608.99,-67.64 600.99,-64.84 600.99,-70.44"/>
<text text-anchor="middle" x="548" y="-82.84" font-family="Helvetica,sans-Serif" font-size="11.00" fill="#6b7280">waits while</text>
<text text-anchor="middle" x="548" y="-70.84" font-family="Helvetica,sans-Serif" font-size="11.00" fill="#6b7280">a merge job runs</text>
</g>
<!-- MM&#45;&gt;MM -->
<g id="edge5" class="edge">
<title>MM&#45;&gt;MM</title>
<path fill="none" stroke="#dc2626" stroke-width="1.3" stroke-dasharray="5,2" d="M1052.98,-133.93C1047.2,-146.66 1055.88,-158.64 1079,-158.64 1097.25,-158.64 1106.5,-151.18 1106.74,-141.78"/>
<polygon fill="#dc2626" stroke="#dc2626" stroke-width="1.3" points="1109.47,-141.14 1105.02,-133.93 1104,-142.35 1109.47,-141.14"/>
<text text-anchor="middle" x="1079" y="-173.84" font-family="Helvetica,sans-Serif" font-size="11.00" fill="#dc2626">conflict: the merge</text>
<text text-anchor="middle" x="1079" y="-161.84" font-family="Helvetica,sans-Serif" font-size="11.00" fill="#dc2626">session resolves it</text>
</g>
<!-- MC -->
<g id="node4" class="node">
<title>MC</title>
<path fill="#eef2ff" stroke="#6366f1" stroke-width="1.3" d="M1429,-140.64C1429,-140.64 1303,-140.64 1303,-140.64 1297,-140.64 1291,-134.64 1291,-128.64 1291,-128.64 1291,-96.64 1291,-96.64 1291,-90.64 1297,-84.64 1303,-84.64 1303,-84.64 1429,-84.64 1429,-84.64 1435,-84.64 1441,-90.64 1441,-96.64 1441,-96.64 1441,-128.64 1441,-128.64 1441,-134.64 1435,-140.64 1429,-140.64"/>
<text text-anchor="middle" x="1366" y="-123.24" font-family="Helvetica,sans-Serif" font-size="13.00">Merge checkpoint</text>
<text text-anchor="middle" x="1366" y="-109.24" font-family="Helvetica,sans-Serif" font-size="13.00">full suite, typecheck,</text>
<text text-anchor="middle" x="1366" y="-95.24" font-family="Helvetica,sans-Serif" font-size="13.00">playtest, build</text>
</g>
<!-- MM&#45;&gt;MC -->
<g id="edge2" class="edge">
<title>MM&#45;&gt;MC</title>
<path fill="none" stroke="#374151" stroke-width="1.8" d="M1163.2,-112.64C1200.78,-112.64 1245.05,-112.64 1282.54,-112.64"/>
<polygon fill="#374151" stroke="#374151" stroke-width="1.8" points="1282.92,-115.44 1290.92,-112.64 1282.92,-109.84 1282.92,-115.44"/>
</g>
<!-- MC&#45;&gt;MM -->
<g id="edge6" class="edge">
<title>MC&#45;&gt;MM</title>
<path fill="none" stroke="#dc2626" stroke-width="1.3" stroke-dasharray="5,2" d="M1290.86,-114.36C1284.14,-114.47 1277.45,-114.57 1271,-114.64 1231.89,-115.05 1222.11,-115.02 1183,-114.64 1179.18,-114.6 1175.27,-114.56 1171.33,-114.5"/>
<polygon fill="#dc2626" stroke="#dc2626" stroke-width="1.3" points="1171.24,-111.7 1163.2,-114.39 1171.16,-117.3 1171.24,-111.7"/>
<text text-anchor="middle" x="1227" y="-130.84" font-family="Helvetica,sans-Serif" font-size="11.00" fill="#dc2626">failure: back into</text>
<text text-anchor="middle" x="1227" y="-118.84" font-family="Helvetica,sans-Serif" font-size="11.00" fill="#dc2626">the merge session</text>
</g>
<!-- MC&#45;&gt;MC -->
<g id="edge7" class="edge">
<title>MC&#45;&gt;MC</title>
<path fill="none" stroke="#dc2626" stroke-width="1.3" stroke-dasharray="5,2" d="M1340.7,-140.72C1337.75,-153.99 1346.19,-165.64 1366,-165.64 1381.63,-165.64 1390.18,-158.38 1391.65,-148.81"/>
<polygon fill="#dc2626" stroke="#dc2626" stroke-width="1.3" points="1394.44,-148.6 1391.3,-140.72 1388.85,-148.83 1394.44,-148.6"/>
<text text-anchor="middle" x="1366" y="-192.84" font-family="Helvetica,sans-Serif" font-size="11.00" fill="#dc2626">timed out or past</text>
<text text-anchor="middle" x="1366" y="-180.84" font-family="Helvetica,sans-Serif" font-size="11.00" fill="#dc2626">FACTORY_CHECKS_TIMEOUT_MINUTES:</text>
<text text-anchor="middle" x="1366" y="-168.84" font-family="Helvetica,sans-Serif" font-size="11.00" fill="#dc2626">run again, at most 3 runs</text>
</g>
<!-- MP -->
<g id="node5" class="node">
<title>MP</title>
<path fill="#eef2ff" stroke="#6366f1" stroke-width="1.3" d="M1713.5,-133.64C1713.5,-133.64 1622.5,-133.64 1622.5,-133.64 1616.5,-133.64 1610.5,-127.64 1610.5,-121.64 1610.5,-121.64 1610.5,-103.64 1610.5,-103.64 1610.5,-97.64 1616.5,-91.64 1622.5,-91.64 1622.5,-91.64 1713.5,-91.64 1713.5,-91.64 1719.5,-91.64 1725.5,-97.64 1725.5,-103.64 1725.5,-103.64 1725.5,-121.64 1725.5,-121.64 1725.5,-127.64 1719.5,-133.64 1713.5,-133.64"/>
<text text-anchor="middle" x="1668" y="-116.24" font-family="Helvetica,sans-Serif" font-size="13.00">Push the base</text>
<text text-anchor="middle" x="1668" y="-102.24" font-family="Helvetica,sans-Serif" font-size="13.00">rebuild /dev/</text>
</g>
<!-- MC&#45;&gt;MP -->
<g id="edge3" class="edge">
<title>MC&#45;&gt;MP</title>
<path fill="none" stroke="#374151" stroke-width="1.8" d="M1441.16,-112.64C1490.53,-112.64 1554.78,-112.64 1602.12,-112.64"/>
<polygon fill="#374151" stroke="#374151" stroke-width="1.8" points="1602.16,-115.44 1610.16,-112.64 1602.16,-109.84 1602.16,-115.44"/>
</g>
<!-- XS -->
<g id="node9" class="node">
<title>XS</title>
<path fill="#f3f4f6" stroke="#6b7280" stroke-width="1.3" d="M1739,-55.64C1739,-55.64 1597,-55.64 1597,-55.64 1591,-55.64 1585,-49.64 1585,-43.64 1585,-43.64 1585,-25.64 1585,-25.64 1585,-19.64 1591,-13.64 1597,-13.64 1597,-13.64 1739,-13.64 1739,-13.64 1745,-13.64 1751,-19.64 1751,-25.64 1751,-25.64 1751,-43.64 1751,-43.64 1751,-49.64 1745,-55.64 1739,-55.64"/>
<text text-anchor="middle" x="1668" y="-38.24" font-family="Helvetica,sans-Serif" font-size="13.00">factory&#45;stuck</text>
<text text-anchor="middle" x="1668" y="-24.24" font-family="Helvetica,sans-Serif" font-size="13.00">every card of the batch</text>
</g>
<!-- MC&#45;&gt;XS -->
<g id="edge15" class="edge">
<title>MC&#45;&gt;XS</title>
<path fill="none" stroke="#6b7280" stroke-width="1.3" stroke-dasharray="5,2" d="M1441.24,-88.34C1447.9,-86.34 1454.56,-84.41 1461,-82.64 1498.69,-72.25 1540.65,-62.2 1576.82,-54.01"/>
<polygon fill="#6b7280" stroke="#6b7280" stroke-width="1.3" points="1577.73,-56.67 1584.92,-52.18 1576.5,-51.21 1577.73,-56.67"/>
<text text-anchor="middle" x="1513" y="-97.84" font-family="Helvetica,sans-Serif" font-size="11.00" fill="#6b7280">budget spent, timeout</text>
<text text-anchor="middle" x="1513" y="-85.84" font-family="Helvetica,sans-Serif" font-size="11.00" fill="#6b7280">or job death</text>
</g>
<!-- MP&#45;&gt;MM -->
<g id="edge8" class="edge">
<title>MP&#45;&gt;MM</title>
<path fill="none" stroke="#dc2626" stroke-width="1.3" stroke-dasharray="5,2" d="M1629.7,-133.8C1586.07,-157.23 1510.88,-193.55 1441,-207.64 1375.65,-220.81 1356.18,-221.63 1291,-207.64 1228.94,-194.31 1163.1,-161.24 1121.8,-137.88"/>
<polygon fill="#dc2626" stroke="#dc2626" stroke-width="1.3" points="1122.96,-135.32 1114.63,-133.78 1120.18,-140.18 1122.96,-135.32"/>
<text text-anchor="middle" x="1366" y="-232.84" font-family="Helvetica,sans-Serif" font-size="11.00" fill="#dc2626">base moved:</text>
<text text-anchor="middle" x="1366" y="-220.84" font-family="Helvetica,sans-Serif" font-size="11.00" fill="#dc2626">merge it in, check again</text>
</g>
<!-- MP&#45;&gt;MM -->
<g id="edge10" class="edge">
<title>MP&#45;&gt;MM</title>
<path fill="none" stroke="#dc2626" stroke-width="1.3" stroke-dasharray="5,2" d="M1642.54,-133.83C1622.54,-150.53 1593.08,-173.74 1565,-190.64 1458.43,-254.79 1411.95,-276.66 1291,-247.64 1217.05,-229.89 1145.67,-173.39 1107.85,-139.37"/>
<polygon fill="#dc2626" stroke="#dc2626" stroke-width="1.3" points="1109.43,-137.02 1101.63,-133.7 1105.66,-141.16 1109.43,-137.02"/>
<text text-anchor="middle" x="1366" y="-274.84" font-family="Helvetica,sans-Serif" font-size="11.00" fill="#dc2626">cards left: the next</text>
<text text-anchor="middle" x="1366" y="-262.84" font-family="Helvetica,sans-Serif" font-size="11.00" fill="#dc2626">job takes the next batch</text>
</g>
<!-- XN -->
<g id="node10" class="node">
<title>XN</title>
<path fill="#f3f4f6" stroke="#6b7280" stroke-width="1.3" d="M1874,-130.64C1874,-130.64 1804,-130.64 1804,-130.64 1798,-130.64 1792,-124.64 1792,-118.64 1792,-118.64 1792,-106.64 1792,-106.64 1792,-100.64 1798,-94.64 1804,-94.64 1804,-94.64 1874,-94.64 1874,-94.64 1880,-94.64 1886,-100.64 1886,-106.64 1886,-106.64 1886,-118.64 1886,-118.64 1886,-124.64 1880,-130.64 1874,-130.64"/>
<text text-anchor="middle" x="1839" y="-109.24" font-family="Helvetica,sans-Serif" font-size="13.00">Done</text>
</g>
<!-- MP&#45;&gt;XN -->
<g id="edge16" class="edge">
<title>MP&#45;&gt;XN</title>
<path fill="none" stroke="#6b7280" stroke-width="1.3" stroke-dasharray="5,2" d="M1725.74,-112.64C1744.37,-112.64 1765.02,-112.64 1783.48,-112.64"/>
<polygon fill="#6b7280" stroke="#6b7280" stroke-width="1.3" points="1783.79,-115.44 1791.79,-112.64 1783.79,-109.84 1783.79,-115.44"/>
</g>
<!-- CU&#45;&gt;MM -->
<g id="edge18" class="edge">
<title>CU&#45;&gt;MM</title>
<path fill="none" stroke="#6b7280" stroke-width="1.3" stroke-dasharray="5,2" d="M824.2,-80.96C875.83,-87.4 937.17,-95.06 986.61,-101.23"/>
<polygon fill="#6b7280" stroke="#6b7280" stroke-width="1.3" points="986.47,-104.03 994.76,-102.25 987.17,-98.48 986.47,-104.03"/>
<text text-anchor="middle" x="909.5" y="-114.84" font-family="Helvetica,sans-Serif" font-size="11.00" fill="#6b7280">its batch meets only</text>
<text text-anchor="middle" x="909.5" y="-102.84" font-family="Helvetica,sans-Serif" font-size="11.00" fill="#6b7280">what the base gained since</text>
</g>
<!-- CU&#45;&gt;CU -->
<g id="edge11" class="edge">
<title>CU&#45;&gt;CU</title>
<path fill="none" stroke="#dc2626" stroke-width="1.3" stroke-dasharray="5,2" d="M685.69,-95.72C682.11,-108.99 692.38,-120.64 716.5,-120.64 735.53,-120.64 745.94,-113.38 747.72,-103.81"/>
<polygon fill="#dc2626" stroke="#dc2626" stroke-width="1.3" points="750.51,-103.57 747.31,-95.72 744.92,-103.85 750.51,-103.57"/>
<text text-anchor="middle" x="716.5" y="-147.84" font-family="Helvetica,sans-Serif" font-size="11.00" fill="#dc2626">conflict: an agent</text>
<text text-anchor="middle" x="716.5" y="-135.84" font-family="Helvetica,sans-Serif" font-size="11.00" fill="#dc2626">resolves it, push</text>
<text text-anchor="middle" x="716.5" y="-123.84" font-family="Helvetica,sans-Serif" font-size="11.00" fill="#dc2626">the issue branch only</text>
</g>
<!-- XA -->
<g id="node7" class="node">
<title>XA</title>
<path fill="#f3f4f6" stroke="#6b7280" stroke-width="1.3" d="M82,-85.64C82,-85.64 12,-85.64 12,-85.64 6,-85.64 0,-79.64 0,-73.64 0,-73.64 0,-61.64 0,-61.64 0,-55.64 6,-49.64 12,-49.64 12,-49.64 82,-49.64 82,-49.64 88,-49.64 94,-55.64 94,-61.64 94,-61.64 94,-73.64 94,-73.64 94,-79.64 88,-85.64 82,-85.64"/>
<text text-anchor="middle" x="47" y="-64.24" font-family="Helvetica,sans-Serif" font-size="13.00">Approve</text>
</g>
<!-- XA&#45;&gt;HM -->
<g id="edge12" class="edge">
<title>XA&#45;&gt;HM</title>
<path fill="none" stroke="#6b7280" stroke-width="1.3" stroke-dasharray="5,2" d="M94.1,-67.64C104.34,-67.64 115.51,-67.64 126.78,-67.64"/>
<polygon fill="#6b7280" stroke="#6b7280" stroke-width="1.3" points="127,-70.44 135,-67.64 127,-64.84 127,-70.44"/>
</g>
<!-- XO -->
<g id="node8" class="node">
<title>XO</title>
<path fill="#f3f4f6" stroke="#6b7280" stroke-width="1.3" d="M759.5,-272.64C759.5,-272.64 673.5,-272.64 673.5,-272.64 667.5,-272.64 661.5,-266.64 661.5,-260.64 661.5,-260.64 661.5,-248.64 661.5,-248.64 661.5,-242.64 667.5,-236.64 673.5,-236.64 673.5,-236.64 759.5,-236.64 759.5,-236.64 765.5,-236.64 771.5,-242.64 771.5,-248.64 771.5,-248.64 771.5,-260.64 771.5,-260.64 771.5,-266.64 765.5,-272.64 759.5,-272.64"/>
<text text-anchor="middle" x="716.5" y="-251.24" font-family="Helvetica,sans-Serif" font-size="13.00">factory merge</text>
</g>
<!-- XO&#45;&gt;MM -->
<g id="edge14" class="edge">
<title>XO&#45;&gt;MM</title>
<path fill="none" stroke="#6b7280" stroke-width="1.3" stroke-dasharray="5,2" d="M771.55,-257.03C825.84,-257.22 910.49,-251.35 975,-218.64 1010.56,-200.6 1040.9,-165.41 1059.26,-140.53"/>
<polygon fill="#6b7280" stroke="#6b7280" stroke-width="1.3" points="1061.7,-141.93 1064.11,-133.81 1057.16,-138.65 1061.7,-141.93"/>
</g>
<!-- XS&#45;&gt;MM -->
<g id="edge9" class="edge">
<title>XS&#45;&gt;MM</title>
<path fill="none" stroke="#dc2626" stroke-width="1.3" stroke-dasharray="5,2" d="M1584.86,-26.75C1508.19,-21.29 1390.93,-17.84 1291,-35.64 1234.32,-45.73 1172.84,-69.79 1130.95,-88.35"/>
<polygon fill="#dc2626" stroke="#dc2626" stroke-width="1.3" points="1129.78,-85.81 1123.62,-91.63 1132.06,-90.92 1129.78,-85.81"/>
<text text-anchor="middle" x="1366" y="-62.84" font-family="Helvetica,sans-Serif" font-size="11.00" fill="#dc2626">timed out or died:</text>
<text text-anchor="middle" x="1366" y="-50.84" font-family="Helvetica,sans-Serif" font-size="11.00" fill="#dc2626">the stuck sweep releases</text>
<text text-anchor="middle" x="1366" y="-38.84" font-family="Helvetica,sans-Serif" font-size="11.00" fill="#dc2626">half the batch</text>
</g>
</g>
</svg>
