<?xml version="1.0" encoding="UTF-8" standalone="no"?>
<!-- source-sha256: 423d290e126b26a6ed7374830c15a426f5f5c93092749ba64b08cb982c3996dd -->
<!DOCTYPE svg PUBLIC "-//W3C//DTD SVG 1.1//EN"
 "http://www.w3.org/Graphics/SVG/1.1/DTD/svg11.dtd">
<!-- Generated by graphviz version 2.43.0 (0)
 -->
<!-- Title: hardening Pages: 1 -->
<svg width="1636pt" height="287pt"
 viewBox="0.00 0.00 1636.20 287.20" xmlns="http://www.w3.org/2000/svg" xmlns:xlink="http://www.w3.org/1999/xlink">
<g id="graph0" class="graph" transform="scale(1 1) rotate(0) translate(21.6 265.6)">
<title>hardening</title>
<polygon fill="white" stroke="transparent" points="-21.6,21.6 -21.6,-265.6 1614.6,-265.6 1614.6,21.6 -21.6,21.6"/>
<!-- HM -->
<g id="node1" class="node">
<title>HM</title>
<path fill="#eef2ff" stroke="#6366f1" stroke-width="1.3" d="M245,-118C245,-118 147,-118 147,-118 141,-118 135,-112 135,-106 135,-106 135,-88 135,-88 135,-82 141,-76 147,-76 147,-76 245,-76 245,-76 251,-76 257,-82 257,-88 257,-88 257,-106 257,-106 257,-112 251,-118 245,-118"/>
<text text-anchor="middle" x="196" y="-100.6" font-family="Helvetica,sans-Serif" font-size="13.00">Merge new</text>
<text text-anchor="middle" x="196" y="-86.6" font-family="Helvetica,sans-Serif" font-size="13.00">branch commits</text>
</g>
<!-- HH -->
<g id="node2" class="node">
<title>HH</title>
<path fill="#eef2ff" stroke="#6366f1" stroke-width="1.3" d="M423,-118C423,-118 310,-118 310,-118 304,-118 298,-112 298,-106 298,-106 298,-88 298,-88 298,-82 304,-76 310,-76 310,-76 423,-76 423,-76 429,-76 435,-82 435,-88 435,-88 435,-106 435,-106 435,-112 429,-118 423,-118"/>
<text text-anchor="middle" x="366.5" y="-100.6" font-family="Helvetica,sans-Serif" font-size="13.00">Harden round</text>
<text text-anchor="middle" x="366.5" y="-86.6" font-family="Helvetica,sans-Serif" font-size="13.00">verify, review, cost</text>
</g>
<!-- HM&#45;&gt;HH -->
<g id="edge1" class="edge">
<title>HM&#45;&gt;HH</title>
<path fill="none" stroke="#374151" stroke-width="1.8" d="M257.36,-97C267.82,-97 278.81,-97 289.62,-97"/>
<polygon fill="#374151" stroke="#374151" stroke-width="1.8" points="289.84,-99.8 297.84,-97 289.84,-94.2 289.84,-99.8"/>
</g>
<!-- HR -->
<g id="node3" class="node">
<title>HR</title>
<path fill="#eef2ff" stroke="#6366f1" stroke-width="1.3" d="M569,-118C569,-118 488,-118 488,-118 482,-118 476,-112 476,-106 476,-106 476,-88 476,-88 476,-82 482,-76 488,-76 488,-76 569,-76 569,-76 575,-76 581,-82 581,-88 581,-88 581,-106 581,-106 581,-112 575,-118 569,-118"/>
<text text-anchor="middle" x="528.5" y="-100.6" font-family="Helvetica,sans-Serif" font-size="13.00">/code&#45;review</text>
<text text-anchor="middle" x="528.5" y="-86.6" font-family="Helvetica,sans-Serif" font-size="13.00">on Sonnet</text>
</g>
<!-- HM&#45;&gt;HR -->
<g id="edge11" class="edge">
<title>HM&#45;&gt;HR</title>
<path fill="none" stroke="#6b7280" stroke-width="1.3" stroke-dasharray="5,2" d="M224.41,-75.97C243.8,-62.48 271.04,-46.19 298,-39 356.83,-23.31 376.48,-22.17 435,-39 457.19,-45.38 479.21,-58.83 496.2,-71.16"/>
<polygon fill="#6b7280" stroke="#6b7280" stroke-width="1.3" points="494.59,-73.46 502.68,-76 497.94,-68.97 494.59,-73.46"/>
<text text-anchor="middle" x="366.5" y="-54.2" font-family="Helvetica,sans-Serif" font-size="11.00" fill="#6b7280">cleanup task or docs only:</text>
<text text-anchor="middle" x="366.5" y="-42.2" font-family="Helvetica,sans-Serif" font-size="11.00" fill="#6b7280">no harden round</text>
</g>
<!-- HH&#45;&gt;HR -->
<g id="edge2" class="edge">
<title>HH&#45;&gt;HR</title>
<path fill="none" stroke="#374151" stroke-width="1.8" d="M435.35,-97C445.97,-97 456.88,-97 467.31,-97"/>
<polygon fill="#374151" stroke="#374151" stroke-width="1.8" points="467.56,-99.8 475.56,-97 467.56,-94.2 467.56,-99.8"/>
</g>
<!-- HR&#45;&gt;HR -->
<g id="edge9" class="edge">
<title>HR&#45;&gt;HR</title>
<path fill="none" stroke="#dc2626" stroke-width="1.3" stroke-dasharray="5,2" d="M515.84,-118.29C513.03,-131.02 517.25,-143 528.5,-143 537.29,-143 541.79,-135.69 541.99,-126.42"/>
<polygon fill="#dc2626" stroke="#dc2626" stroke-width="1.3" points="544.76,-125.96 541.16,-118.29 539.19,-126.54 544.76,-125.96"/>
<text text-anchor="middle" x="528.5" y="-146.2" font-family="Helvetica,sans-Serif" font-size="11.00" fill="#dc2626">FAIL: one review&#45;fix round</text>
</g>
<!-- HS -->
<g id="node4" class="node">
<title>HS</title>
<path fill="#eef2ff" stroke="#6366f1" stroke-width="1.3" d="M758.89,-128.46C758.89,-128.46 693.11,-101.54 693.11,-101.54 687.55,-99.27 687.55,-94.73 693.11,-92.46 693.11,-92.46 758.89,-65.54 758.89,-65.54 764.45,-63.27 775.55,-63.27 781.11,-65.54 781.11,-65.54 846.89,-92.46 846.89,-92.46 852.45,-94.73 852.45,-99.27 846.89,-101.54 846.89,-101.54 781.11,-128.46 781.11,-128.46 775.55,-130.73 764.45,-130.73 758.89,-128.46"/>
<text text-anchor="middle" x="770" y="-100.6" font-family="Helvetica,sans-Serif" font-size="13.00">Head still the</text>
<text text-anchor="middle" x="770" y="-86.6" font-family="Helvetica,sans-Serif" font-size="13.00">played build?</text>
</g>
<!-- HR&#45;&gt;HS -->
<g id="edge3" class="edge">
<title>HR&#45;&gt;HS</title>
<path fill="none" stroke="#374151" stroke-width="1.8" d="M581.17,-97C608.06,-97 641.8,-97 673.25,-97"/>
<polygon fill="#374151" stroke="#374151" stroke-width="1.8" points="673.61,-99.8 681.61,-97 673.61,-94.2 673.61,-99.8"/>
</g>
<!-- XD -->
<g id="node10" class="node">
<title>XD</title>
<path fill="#f3f4f6" stroke="#6b7280" stroke-width="1.3" d="M805,-36C805,-36 735,-36 735,-36 729,-36 723,-30 723,-24 723,-24 723,-12 723,-12 723,-6 729,0 735,0 735,0 805,0 805,0 811,0 817,-6 817,-12 817,-12 817,-24 817,-24 817,-30 811,-36 805,-36"/>
<text text-anchor="middle" x="770" y="-14.6" font-family="Helvetica,sans-Serif" font-size="13.00">Design</text>
</g>
<!-- HR&#45;&gt;XD -->
<g id="edge13" class="edge">
<title>HR&#45;&gt;XD</title>
<path fill="none" stroke="#6b7280" stroke-width="1.3" stroke-dasharray="5,2" d="M581.17,-79.96C620.62,-66.94 674.83,-49.06 714.87,-35.85"/>
<polygon fill="#6b7280" stroke="#6b7280" stroke-width="1.3" points="715.97,-38.44 722.69,-33.28 714.21,-33.12 715.97,-38.44"/>
<text text-anchor="middle" x="631.5" y="-75.2" font-family="Helvetica,sans-Serif" font-size="11.00" fill="#6b7280">second FAIL</text>
</g>
<!-- HX -->
<g id="node5" class="node">
<title>HX</title>
<path fill="#eef2ff" stroke="#6366f1" stroke-width="1.3" d="M1146,-188C1146,-188 1012,-188 1012,-188 1006,-188 1000,-182 1000,-176 1000,-176 1000,-158 1000,-158 1000,-152 1006,-146 1012,-146 1012,-146 1146,-146 1146,-146 1152,-146 1158,-152 1158,-158 1158,-158 1158,-176 1158,-176 1158,-182 1152,-188 1146,-188"/>
<text text-anchor="middle" x="1079" y="-170.6" font-family="Helvetica,sans-Serif" font-size="13.00">Merge the base</text>
<text text-anchor="middle" x="1079" y="-156.6" font-family="Helvetica,sans-Serif" font-size="13.00">merge agent resolves</text>
</g>
<!-- HS&#45;&gt;HX -->
<g id="edge5" class="edge">
<title>HS&#45;&gt;HX</title>
<path fill="none" stroke="#374151" stroke-width="1.8" d="M826.95,-109.76C873.01,-120.26 939.08,-135.33 991.88,-147.36"/>
<polygon fill="#374151" stroke="#374151" stroke-width="1.8" points="991.48,-150.14 999.9,-149.19 992.73,-144.68 991.48,-150.14"/>
<text text-anchor="middle" x="929" y="-147.2" font-family="Helvetica,sans-Serif" font-size="11.00">no</text>
</g>
<!-- HQ -->
<g id="node7" class="node">
<title>HQ</title>
<path fill="#eef2ff" stroke="#6366f1" stroke-width="1.3" d="M1581,-118C1581,-118 1495,-118 1495,-118 1489,-118 1483,-112 1483,-106 1483,-106 1483,-88 1483,-88 1483,-82 1489,-76 1495,-76 1495,-76 1581,-76 1581,-76 1587,-76 1593,-82 1593,-88 1593,-88 1593,-106 1593,-106 1593,-112 1587,-118 1581,-118"/>
<text text-anchor="middle" x="1538" y="-100.6" font-family="Helvetica,sans-Serif" font-size="13.00">Queue merge</text>
<text text-anchor="middle" x="1538" y="-86.6" font-family="Helvetica,sans-Serif" font-size="13.00">no post</text>
</g>
<!-- HS&#45;&gt;HQ -->
<g id="edge4" class="edge">
<title>HS&#45;&gt;HQ</title>
<path fill="none" stroke="#374151" stroke-width="1.8" d="M858.12,-97C1014.25,-97 1338.11,-97 1474.4,-97"/>
<polygon fill="#374151" stroke="#374151" stroke-width="1.8" points="1474.71,-99.8 1482.71,-97 1474.71,-94.2 1474.71,-99.8"/>
<text text-anchor="middle" x="1186.5" y="-100.2" font-family="Helvetica,sans-Serif" font-size="11.00">yes</text>
</g>
<!-- HC -->
<g id="node6" class="node">
<title>HC</title>
<path fill="#eef2ff" stroke="#6366f1" stroke-width="1.3" d="M1355,-195C1355,-195 1227,-195 1227,-195 1221,-195 1215,-189 1215,-183 1215,-183 1215,-151 1215,-151 1215,-145 1221,-139 1227,-139 1227,-139 1355,-139 1355,-139 1361,-139 1367,-145 1367,-151 1367,-151 1367,-183 1367,-183 1367,-189 1361,-195 1355,-195"/>
<text text-anchor="middle" x="1291" y="-177.6" font-family="Helvetica,sans-Serif" font-size="13.00">Checks on that head</text>
<text text-anchor="middle" x="1291" y="-163.6" font-family="Helvetica,sans-Serif" font-size="13.00">tests, playtest, build</text>
<text text-anchor="middle" x="1291" y="-149.6" font-family="Helvetica,sans-Serif" font-size="13.00">docs only: build</text>
</g>
<!-- HX&#45;&gt;HC -->
<g id="edge6" class="edge">
<title>HX&#45;&gt;HC</title>
<path fill="none" stroke="#374151" stroke-width="1.8" d="M1158.2,-167C1173.99,-167 1190.64,-167 1206.6,-167"/>
<polygon fill="#374151" stroke="#374151" stroke-width="1.8" points="1206.88,-169.8 1214.88,-167 1206.88,-164.2 1206.88,-169.8"/>
</g>
<!-- HC&#45;&gt;HC -->
<g id="edge8" class="edge">
<title>HC&#45;&gt;HC</title>
<path fill="none" stroke="#dc2626" stroke-width="1.3" stroke-dasharray="5,2" d="M1271.93,-195.08C1269.71,-208.35 1276.07,-220 1291,-220 1302.78,-220 1309.22,-212.75 1310.33,-203.17"/>
<polygon fill="#dc2626" stroke="#dc2626" stroke-width="1.3" points="1313.12,-202.99 1310.07,-195.08 1307.53,-203.17 1313.12,-202.99"/>
<text text-anchor="middle" x="1291" y="-235.2" font-family="Helvetica,sans-Serif" font-size="11.00" fill="#dc2626">timeouts: rerun, up to 3</text>
<text text-anchor="middle" x="1291" y="-223.2" font-family="Helvetica,sans-Serif" font-size="11.00" fill="#dc2626">failure: one check&#45;fix round</text>
</g>
<!-- HC&#45;&gt;HQ -->
<g id="edge7" class="edge">
<title>HC&#45;&gt;HQ</title>
<path fill="none" stroke="#374151" stroke-width="1.8" d="M1367.17,-145.52C1401.81,-135.63 1442.42,-124.02 1475.24,-114.65"/>
<polygon fill="#374151" stroke="#374151" stroke-width="1.8" points="1476.05,-117.33 1482.97,-112.44 1474.51,-111.94 1476.05,-117.33"/>
</g>
<!-- XS -->
<g id="node11" class="node">
<title>XS</title>
<path fill="#f3f4f6" stroke="#6b7280" stroke-width="1.3" d="M1578.5,-189C1578.5,-189 1497.5,-189 1497.5,-189 1491.5,-189 1485.5,-183 1485.5,-177 1485.5,-177 1485.5,-165 1485.5,-165 1485.5,-159 1491.5,-153 1497.5,-153 1497.5,-153 1578.5,-153 1578.5,-153 1584.5,-153 1590.5,-159 1590.5,-165 1590.5,-165 1590.5,-177 1590.5,-177 1590.5,-183 1584.5,-189 1578.5,-189"/>
<text text-anchor="middle" x="1538" y="-167.6" font-family="Helvetica,sans-Serif" font-size="13.00">factory&#45;stuck</text>
</g>
<!-- HC&#45;&gt;XS -->
<g id="edge14" class="edge">
<title>HC&#45;&gt;XS</title>
<path fill="none" stroke="#6b7280" stroke-width="1.3" stroke-dasharray="5,2" d="M1367.17,-168.23C1402.44,-168.8 1443.9,-169.48 1477.02,-170.02"/>
<polygon fill="#6b7280" stroke="#6b7280" stroke-width="1.3" points="1477.21,-172.82 1485.26,-170.16 1477.3,-167.22 1477.21,-172.82"/>
<text text-anchor="middle" x="1425" y="-172.2" font-family="Helvetica,sans-Serif" font-size="11.00" fill="#6b7280">fails after the fix</text>
</g>
<!-- XA -->
<g id="node8" class="node">
<title>XA</title>
<path fill="#f3f4f6" stroke="#6b7280" stroke-width="1.3" d="M82,-115C82,-115 12,-115 12,-115 6,-115 0,-109 0,-103 0,-103 0,-91 0,-91 0,-85 6,-79 12,-79 12,-79 82,-79 82,-79 88,-79 94,-85 94,-91 94,-91 94,-103 94,-103 94,-109 88,-115 82,-115"/>
<text text-anchor="middle" x="47" y="-93.6" font-family="Helvetica,sans-Serif" font-size="13.00">Approve</text>
</g>
<!-- XA&#45;&gt;HM -->
<g id="edge10" class="edge">
<title>XA&#45;&gt;HM</title>
<path fill="none" stroke="#6b7280" stroke-width="1.3" stroke-dasharray="5,2" d="M94.11,-97C104.47,-97 115.69,-97 126.75,-97"/>
<polygon fill="#6b7280" stroke="#6b7280" stroke-width="1.3" points="126.75,-99.8 134.75,-97 126.75,-94.2 126.75,-99.8"/>
</g>
<!-- XC -->
<g id="node9" class="node">
<title>XC</title>
<path fill="#f3f4f6" stroke="#6b7280" stroke-width="1.3" d="M838.5,-203C838.5,-203 701.5,-203 701.5,-203 695.5,-203 689.5,-197 689.5,-191 689.5,-191 689.5,-173 689.5,-173 689.5,-167 695.5,-161 701.5,-161 701.5,-161 838.5,-161 838.5,-161 844.5,-161 850.5,-167 850.5,-173 850.5,-173 850.5,-191 850.5,-191 850.5,-197 844.5,-203 838.5,-203"/>
<text text-anchor="middle" x="770" y="-185.6" font-family="Helvetica,sans-Serif" font-size="13.00">Approve</text>
<text text-anchor="middle" x="770" y="-171.6" font-family="Helvetica,sans-Serif" font-size="13.00">conflicts with the base</text>
</g>
<!-- XC&#45;&gt;HX -->
<g id="edge12" class="edge">
<title>XC&#45;&gt;HX</title>
<path fill="none" stroke="#6b7280" stroke-width="1.3" stroke-dasharray="5,2" d="M850.86,-178.1C894.09,-175.99 947.54,-173.37 991.73,-171.22"/>
<polygon fill="#6b7280" stroke="#6b7280" stroke-width="1.3" points="992.01,-174 999.87,-170.82 991.74,-168.41 992.01,-174"/>
<text text-anchor="middle" x="929" y="-179.2" font-family="Helvetica,sans-Serif" font-size="11.00" fill="#6b7280">no harden, no review</text>
</g>
</g>
</svg>
