<?xml version="1.0" encoding="UTF-8" standalone="no"?>
<!-- source-sha256: 9641e34068d236ab8d40e5fe60047f39213b4da3a4974575ae1380809d472a12 -->
<!DOCTYPE svg PUBLIC "-//W3C//DTD SVG 1.1//EN"
 "http://www.w3.org/Graphics/SVG/1.1/DTD/svg11.dtd">
<!-- Generated by graphviz version 2.43.0 (0)
 -->
<!-- Title: lifecycle Pages: 1 -->
<svg width="1576pt" height="303pt"
 viewBox="0.00 0.00 1576.20 303.07" xmlns="http://www.w3.org/2000/svg" xmlns:xlink="http://www.w3.org/1999/xlink">
<g id="graph0" class="graph" transform="scale(1 1) rotate(0) translate(21.6 281.47)">
<title>lifecycle</title>
<polygon fill="white" stroke="transparent" points="-21.6,21.6 -21.6,-281.47 1554.6,-281.47 1554.6,21.6 -21.6,21.6"/>
<!-- T -->
<g id="node1" class="node">
<title>T</title>
<path fill="#eef2ff" stroke="#6366f1" stroke-width="1.3" d="M124,-95.87C124,-95.87 54,-95.87 54,-95.87 48,-95.87 42,-89.87 42,-83.87 42,-83.87 42,-71.87 42,-71.87 42,-65.87 48,-59.87 54,-59.87 54,-59.87 124,-59.87 124,-59.87 130,-59.87 136,-65.87 136,-71.87 136,-71.87 136,-83.87 136,-83.87 136,-89.87 130,-95.87 124,-95.87"/>
<text text-anchor="middle" x="89" y="-74.47" font-family="Helvetica,sans-Serif" font-size="13.00">Triage</text>
</g>
<!-- D -->
<g id="node2" class="node">
<title>D</title>
<path fill="#eef2ff" stroke="#6366f1" stroke-width="1.3" d="M350,-95.87C350,-95.87 280,-95.87 280,-95.87 274,-95.87 268,-89.87 268,-83.87 268,-83.87 268,-71.87 268,-71.87 268,-65.87 274,-59.87 280,-59.87 280,-59.87 350,-59.87 350,-59.87 356,-59.87 362,-65.87 362,-71.87 362,-71.87 362,-83.87 362,-83.87 362,-89.87 356,-95.87 350,-95.87"/>
<text text-anchor="middle" x="315" y="-74.47" font-family="Helvetica,sans-Serif" font-size="13.00">Design</text>
</g>
<!-- T&#45;&gt;D -->
<g id="edge1" class="edge">
<title>T&#45;&gt;D</title>
<path fill="none" stroke="#374151" stroke-width="1.8" d="M136.14,-77.87C171.98,-77.87 221.77,-77.87 259.56,-77.87"/>
<polygon fill="#374151" stroke="#374151" stroke-width="1.8" points="259.92,-80.67 267.92,-77.87 259.92,-75.07 259.92,-80.67"/>
</g>
<!-- W -->
<g id="node9" class="node">
<title>W</title>
<path fill="#fde68a" stroke="#b45309" stroke-width="1.3" d="M142.5,-195.87C142.5,-195.87 35.5,-195.87 35.5,-195.87 29.5,-195.87 23.5,-189.87 23.5,-183.87 23.5,-183.87 23.5,-151.87 23.5,-151.87 23.5,-145.87 29.5,-139.87 35.5,-139.87 35.5,-139.87 142.5,-139.87 142.5,-139.87 148.5,-139.87 154.5,-145.87 154.5,-151.87 154.5,-151.87 154.5,-183.87 154.5,-183.87 154.5,-189.87 148.5,-195.87 142.5,-195.87"/>
<text text-anchor="middle" x="89" y="-178.47" font-family="Helvetica,sans-Serif" font-size="13.00">Author answers</text>
<text text-anchor="middle" x="89" y="-164.47" font-family="Helvetica,sans-Serif" font-size="13.00">on GitHub, or the</text>
<text text-anchor="middle" x="89" y="-150.47" font-family="Helvetica,sans-Serif" font-size="13.00">time limit passes</text>
</g>
<!-- T&#45;&gt;W -->
<g id="edge8" class="edge">
<title>T&#45;&gt;W</title>
<path fill="none" stroke="#dc2626" stroke-width="1.3" stroke-dasharray="5,2" d="M89,-104.35C89,-113.5 89,-122.66 89,-131.81"/>
<polygon fill="#dc2626" stroke="#dc2626" stroke-width="1.3" points="91.8,-104.15 89,-96.15 86.2,-104.15 91.8,-104.15"/>
<polygon fill="#dc2626" stroke="#dc2626" stroke-width="1.3" points="86.2,-131.86 89,-139.86 91.8,-131.86 86.2,-131.86"/>
<text text-anchor="middle" x="145.5" y="-114.85" font-family="Helvetica,sans-Serif" font-size="11.00" fill="#dc2626">unclear game fact, then</text>
<text text-anchor="middle" x="145.5" y="-102.85" font-family="Helvetica,sans-Serif" font-size="11.00" fill="#dc2626">answered or time limit</text>
</g>
<!-- X -->
<g id="node11" class="node">
<title>X</title>
<path fill="#f3f4f6" stroke="#6b7280" stroke-width="1.3" d="M1236,-52.87C1236,-52.87 1166,-52.87 1166,-52.87 1160,-52.87 1154,-46.87 1154,-40.87 1154,-40.87 1154,-22.87 1154,-22.87 1154,-16.87 1160,-10.87 1166,-10.87 1166,-10.87 1236,-10.87 1236,-10.87 1242,-10.87 1248,-16.87 1248,-22.87 1248,-22.87 1248,-40.87 1248,-40.87 1248,-46.87 1242,-52.87 1236,-52.87"/>
<text text-anchor="middle" x="1201" y="-35.47" font-family="Helvetica,sans-Serif" font-size="13.00" fill="#374151">Closed</text>
<text text-anchor="middle" x="1201" y="-21.47" font-family="Helvetica,sans-Serif" font-size="13.00" fill="#374151">not built</text>
</g>
<!-- T&#45;&gt;X -->
<g id="edge14" class="edge">
<title>T&#45;&gt;X</title>
<path fill="none" stroke="#6b7280" stroke-width="1.3" stroke-dasharray="5,2" d="M136.16,-70.08C197.85,-59.72 310.58,-40.96 407,-25.87 469.6,-16.08 484.82,-9.55 548,-4.87 687.52,5.46 763.78,-1.75 1132,-25.87 1136.43,-26.16 1141.03,-26.5 1145.64,-26.85"/>
<polygon fill="#6b7280" stroke="#6b7280" stroke-width="1.3" points="1145.73,-29.67 1153.93,-27.52 1146.18,-24.09 1145.73,-29.67"/>
<text text-anchor="middle" x="595" y="-8.07" font-family="Helvetica,sans-Serif" font-size="11.00" fill="#6b7280">wont&#45;do or bundled</text>
</g>
<!-- I -->
<g id="node3" class="node">
<title>I</title>
<path fill="#eef2ff" stroke="#6366f1" stroke-width="1.3" d="M514,-95.87C514,-95.87 419,-95.87 419,-95.87 413,-95.87 407,-89.87 407,-83.87 407,-83.87 407,-71.87 407,-71.87 407,-65.87 413,-59.87 419,-59.87 419,-59.87 514,-59.87 514,-59.87 520,-59.87 526,-65.87 526,-71.87 526,-71.87 526,-83.87 526,-83.87 526,-89.87 520,-95.87 514,-95.87"/>
<text text-anchor="middle" x="466.5" y="-74.47" font-family="Helvetica,sans-Serif" font-size="13.00">Implementation</text>
</g>
<!-- D&#45;&gt;I -->
<g id="edge2" class="edge">
<title>D&#45;&gt;I</title>
<path fill="none" stroke="#374151" stroke-width="1.8" d="M362.07,-77.87C373.69,-77.87 386.39,-77.87 398.79,-77.87"/>
<polygon fill="#374151" stroke="#374151" stroke-width="1.8" points="398.88,-80.67 406.88,-77.87 398.88,-75.07 398.88,-80.67"/>
</g>
<!-- P -->
<g id="node4" class="node">
<title>P</title>
<path fill="#eef2ff" stroke="#6366f1" stroke-width="1.3" d="M753,-98.87C753,-98.87 676,-98.87 676,-98.87 670,-98.87 664,-92.87 664,-86.87 664,-86.87 664,-68.87 664,-68.87 664,-62.87 670,-56.87 676,-56.87 676,-56.87 753,-56.87 753,-56.87 759,-56.87 765,-62.87 765,-68.87 765,-68.87 765,-86.87 765,-86.87 765,-92.87 759,-98.87 753,-98.87"/>
<text text-anchor="middle" x="714.5" y="-81.47" font-family="Helvetica,sans-Serif" font-size="13.00">Testing</text>
<text text-anchor="middle" x="714.5" y="-67.47" font-family="Helvetica,sans-Serif" font-size="13.00">one session</text>
</g>
<!-- D&#45;&gt;P -->
<g id="edge10" class="edge">
<title>D&#45;&gt;P</title>
<path fill="none" stroke="#dc2626" stroke-width="1.3" stroke-dasharray="5,2" d="M369.89,-98.05C381.93,-101.71 394.77,-104.97 407,-106.87 497.05,-120.87 603.11,-103.36 663.9,-90.1"/>
<polygon fill="#dc2626" stroke="#dc2626" stroke-width="1.3" points="370.57,-95.33 362.1,-95.59 368.89,-100.67 370.57,-95.33"/>
<text text-anchor="middle" x="466.5" y="-116.07" font-family="Helvetica,sans-Serif" font-size="11.00" fill="#dc2626">plan wrong</text>
</g>
<!-- A -->
<g id="node5" class="node">
<title>A</title>
<path fill="#fde68a" stroke="#b45309" stroke-width="1.3" d="M949,-98.87C949,-98.87 848,-98.87 848,-98.87 842,-98.87 836,-92.87 836,-86.87 836,-86.87 836,-68.87 836,-68.87 836,-62.87 842,-56.87 848,-56.87 848,-56.87 949,-56.87 949,-56.87 955,-56.87 961,-62.87 961,-68.87 961,-68.87 961,-86.87 961,-86.87 961,-92.87 955,-98.87 949,-98.87"/>
<text text-anchor="middle" x="898.5" y="-81.47" font-family="Helvetica,sans-Serif" font-size="13.00">Approval</text>
<text text-anchor="middle" x="898.5" y="-67.47" font-family="Helvetica,sans-Serif" font-size="13.00">committee plays</text>
</g>
<!-- D&#45;&gt;A -->
<g id="edge12" class="edge">
<title>D&#45;&gt;A</title>
<path fill="none" stroke="#dc2626" stroke-width="1.3" stroke-dasharray="5,2" d="M345.2,-100.87C362.16,-112.53 384.55,-125.2 407,-129.87 492.55,-147.66 761.9,-120.2 814,-108.87 825.18,-106.44 836.88,-102.82 847.85,-98.91"/>
<polygon fill="#dc2626" stroke="#dc2626" stroke-width="1.3" points="346.43,-98.3 338.28,-95.96 343.19,-102.87 346.43,-98.3"/>
<text text-anchor="middle" x="595" y="-137.07" font-family="Helvetica,sans-Serif" font-size="11.00" fill="#dc2626">redesign</text>
</g>
<!-- M -->
<g id="node8" class="node">
<title>M</title>
<path fill="#eef2ff" stroke="#6366f1" stroke-width="1.3" d="M1521,-95.87C1521,-95.87 1451,-95.87 1451,-95.87 1445,-95.87 1439,-89.87 1439,-83.87 1439,-83.87 1439,-71.87 1439,-71.87 1439,-65.87 1445,-59.87 1451,-59.87 1451,-59.87 1521,-59.87 1521,-59.87 1527,-59.87 1533,-65.87 1533,-71.87 1533,-71.87 1533,-83.87 1533,-83.87 1533,-89.87 1527,-95.87 1521,-95.87"/>
<text text-anchor="middle" x="1486" y="-74.47" font-family="Helvetica,sans-Serif" font-size="13.00">Done</text>
</g>
<!-- D&#45;&gt;M -->
<g id="edge13" class="edge">
<title>D&#45;&gt;M</title>
<path fill="none" stroke="#dc2626" stroke-width="1.3" stroke-dasharray="5,2" d="M338.25,-102.06C350.76,-114.6 367.21,-129.43 384,-139.87 446.04,-178.44 474.95,-150.35 548,-150.87 924.43,-153.54 1024.79,-183.29 1394,-109.87 1409.93,-106.7 1426.86,-101.34 1441.73,-95.9"/>
<polygon fill="#dc2626" stroke="#dc2626" stroke-width="1.3" points="340.03,-99.88 332.44,-96.11 336.03,-103.79 340.03,-99.88"/>
<text text-anchor="middle" x="898.5" y="-162.07" font-family="Helvetica,sans-Serif" font-size="11.00" fill="#dc2626">removed from release</text>
</g>
<!-- D&#45;&gt;X -->
<g id="edge15" class="edge">
<title>D&#45;&gt;X</title>
<path fill="none" stroke="#6b7280" stroke-width="1.3" stroke-dasharray="5,2" d="M362.19,-60.69C376.38,-56.08 392.16,-51.62 407,-48.87 679.8,1.73 753.55,-32 1031,-30.87 1075.89,-30.69 1087.11,-30.54 1132,-30.87 1136.43,-30.9 1141.02,-30.95 1145.63,-31"/>
<polygon fill="#6b7280" stroke="#6b7280" stroke-width="1.3" points="1145.88,-33.8 1153.91,-31.1 1145.95,-28.2 1145.88,-33.8"/>
<text text-anchor="middle" x="714.5" y="-27.07" font-family="Helvetica,sans-Serif" font-size="11.00" fill="#6b7280">wont&#45;do</text>
</g>
<!-- I&#45;&gt;P -->
<g id="edge3" class="edge">
<title>I&#45;&gt;P</title>
<path fill="none" stroke="#374151" stroke-width="1.8" d="M526.11,-77.87C565.25,-77.87 616.5,-77.87 655.51,-77.87"/>
<polygon fill="#374151" stroke="#374151" stroke-width="1.8" points="655.64,-80.67 663.64,-77.87 655.64,-75.07 655.64,-80.67"/>
</g>
<!-- P&#45;&gt;A -->
<g id="edge4" class="edge">
<title>P&#45;&gt;A</title>
<path fill="none" stroke="#374151" stroke-width="1.8" d="M765.23,-77.87C784.47,-77.87 806.82,-77.87 827.62,-77.87"/>
<polygon fill="#374151" stroke="#374151" stroke-width="1.8" points="827.8,-80.67 835.8,-77.87 827.8,-75.07 827.8,-80.67"/>
</g>
<!-- P&#45;&gt;A -->
<g id="edge11" class="edge">
<title>P&#45;&gt;A</title>
<path fill="none" stroke="#dc2626" stroke-width="1.3" stroke-dasharray="5,2" d="M773.52,-89.32C778.07,-89.94 782.6,-90.47 787,-90.87 802.87,-92.3 819.99,-91.46 835.9,-89.66"/>
<polygon fill="#dc2626" stroke="#dc2626" stroke-width="1.3" points="773.67,-86.51 765.35,-88.11 772.85,-92.05 773.67,-86.51"/>
<text text-anchor="middle" x="800.5" y="-95.07" font-family="Helvetica,sans-Serif" font-size="11.00" fill="#dc2626">patch</text>
</g>
<!-- H -->
<g id="node6" class="node">
<title>H</title>
<path fill="#eef2ff" stroke="#6366f1" stroke-width="1.3" d="M1120,-98.87C1120,-98.87 1043,-98.87 1043,-98.87 1037,-98.87 1031,-92.87 1031,-86.87 1031,-86.87 1031,-68.87 1031,-68.87 1031,-62.87 1037,-56.87 1043,-56.87 1043,-56.87 1120,-56.87 1120,-56.87 1126,-56.87 1132,-62.87 1132,-68.87 1132,-68.87 1132,-86.87 1132,-86.87 1132,-92.87 1126,-98.87 1120,-98.87"/>
<text text-anchor="middle" x="1081.5" y="-81.47" font-family="Helvetica,sans-Serif" font-size="13.00">Hardening</text>
<text text-anchor="middle" x="1081.5" y="-67.47" font-family="Helvetica,sans-Serif" font-size="13.00">one session</text>
</g>
<!-- A&#45;&gt;H -->
<g id="edge5" class="edge">
<title>A&#45;&gt;H</title>
<path fill="none" stroke="#374151" stroke-width="1.8" d="M961.03,-77.87C980.94,-77.87 1002.94,-77.87 1022.57,-77.87"/>
<polygon fill="#374151" stroke="#374151" stroke-width="1.8" points="1022.83,-80.67 1030.83,-77.87 1022.83,-75.07 1022.83,-80.67"/>
</g>
<!-- A&#45;&gt;X -->
<g id="edge16" class="edge">
<title>A&#45;&gt;X</title>
<path fill="none" stroke="#6b7280" stroke-width="1.3" stroke-dasharray="5,2" d="M961.3,-60.73C983.17,-55.22 1008.04,-49.59 1031,-45.87 1069.04,-39.7 1112.37,-36.18 1145.63,-34.22"/>
<polygon fill="#6b7280" stroke="#6b7280" stroke-width="1.3" points="1146.03,-37 1153.86,-33.75 1145.71,-31.41 1146.03,-37"/>
<text text-anchor="middle" x="996" y="-59.07" font-family="Helvetica,sans-Serif" font-size="11.00" fill="#6b7280">Deny</text>
</g>
<!-- G -->
<g id="node7" class="node">
<title>G</title>
<path fill="#eef2ff" stroke="#6366f1" stroke-width="1.3" d="M1382,-98.87C1382,-98.87 1282,-98.87 1282,-98.87 1276,-98.87 1270,-92.87 1270,-86.87 1270,-86.87 1270,-68.87 1270,-68.87 1270,-62.87 1276,-56.87 1282,-56.87 1282,-56.87 1382,-56.87 1382,-56.87 1388,-56.87 1394,-62.87 1394,-68.87 1394,-68.87 1394,-86.87 1394,-86.87 1394,-92.87 1388,-98.87 1382,-98.87"/>
<text text-anchor="middle" x="1332" y="-81.47" font-family="Helvetica,sans-Serif" font-size="13.00">Merging</text>
<text text-anchor="middle" x="1332" y="-67.47" font-family="Helvetica,sans-Serif" font-size="13.00">queue, checked</text>
</g>
<!-- H&#45;&gt;G -->
<g id="edge6" class="edge">
<title>H&#45;&gt;G</title>
<path fill="none" stroke="#374151" stroke-width="1.8" d="M1132.19,-77.87C1169.37,-77.87 1220.68,-77.87 1261.87,-77.87"/>
<polygon fill="#374151" stroke="#374151" stroke-width="1.8" points="1261.96,-80.67 1269.96,-77.87 1261.96,-75.07 1261.96,-80.67"/>
</g>
<!-- G&#45;&gt;M -->
<g id="edge7" class="edge">
<title>G&#45;&gt;M</title>
<path fill="none" stroke="#374151" stroke-width="1.8" d="M1394.39,-77.87C1406.44,-77.87 1419,-77.87 1430.79,-77.87"/>
<polygon fill="#374151" stroke="#374151" stroke-width="1.8" points="1430.82,-80.67 1438.82,-77.87 1430.82,-75.07 1430.82,-80.67"/>
</g>
<!-- W&#45;&gt;D -->
<g id="edge9" class="edge">
<title>W&#45;&gt;D</title>
<path fill="none" stroke="#dc2626" stroke-width="1.3" stroke-dasharray="5,2" d="M162.62,-138.69C197.59,-124.64 238.44,-108.23 268.89,-96"/>
<polygon fill="#dc2626" stroke="#dc2626" stroke-width="1.3" points="161.17,-136.26 154.79,-141.84 163.26,-141.45 161.17,-136.26"/>
<text text-anchor="middle" x="223" y="-126.07" font-family="Helvetica,sans-Serif" font-size="11.00" fill="#dc2626">questions</text>
</g>
<!-- N -->
<g id="node10" class="node">
<title>N</title>
<polygon fill="#f3f4f6" stroke="#6b7280" stroke-width="1.3" points="172,-259.87 0,-259.87 0,-217.87 178,-217.87 178,-253.87 172,-259.87"/>
<polyline fill="none" stroke="#6b7280" stroke-width="1.3" points="172,-259.87 172,-253.87 "/>
<polyline fill="none" stroke="#6b7280" stroke-width="1.3" points="178,-253.87 172,-253.87 "/>
<text text-anchor="middle" x="89" y="-242.47" font-family="Helvetica,sans-Serif" font-size="13.00" fill="#374151">Hermes can move a card</text>
<text text-anchor="middle" x="89" y="-228.47" font-family="Helvetica,sans-Serif" font-size="13.00" fill="#374151">to any column</text>
</g>
</g>
</svg>
