<?xml version="1.0" encoding="UTF-8" standalone="no"?>
<!-- source-sha256: bbaf0c97be764bc9df7eecb2cc3c1c89254a67c0371b62200839f0c424721b68 -->
<!DOCTYPE svg PUBLIC "-//W3C//DTD SVG 1.1//EN"
 "http://www.w3.org/Graphics/SVG/1.1/DTD/svg11.dtd">
<!-- Generated by graphviz version 16.1.0 (20260904.0139)
 -->
<!-- Title: testing Pages: 1 -->
<svg width="1163pt" height="349pt"
 viewBox="0.00 0.00 1163.00 349.00" xmlns="http://www.w3.org/2000/svg" xmlns:xlink="http://www.w3.org/1999/xlink">
<g id="graph0" class="graph" transform="scale(1 1) rotate(0) translate(21.6 327.6)">
<title>testing</title>
<polygon fill="white" stroke="none" points="-21.6,21.6 -21.6,-327.6 1141.5,-327.6 1141.5,21.6 -21.6,21.6"/>
<g id="clust1" class="cluster">
<title>cluster_session</title>
<path fill="white" stroke="#c7d2fe" d="M267.8,-47C267.8,-47 1099.9,-47 1099.9,-47 1105.9,-47 1111.9,-53 1111.9,-59 1111.9,-59 1111.9,-200 1111.9,-200 1111.9,-206 1105.9,-212 1099.9,-212 1099.9,-212 267.8,-212 267.8,-212 261.8,-212 255.8,-206 255.8,-200 255.8,-200 255.8,-59 255.8,-59 255.8,-53 261.8,-47 267.8,-47"/>
<text xml:space="preserve" text-anchor="middle" x="683.85" y="-196.6" font-family="Helvetica,sans-Serif" font-size="12.00">Testing job</text>
</g>
<g id="clust2" class="cluster">
<title>cluster_post</title>
<path fill="white" stroke="#c7d2fe" d="M273.05,-220C273.05,-220 595.4,-220 595.4,-220 601.4,-220 607.4,-226 607.4,-232 607.4,-232 607.4,-286 607.4,-286 607.4,-292 601.4,-298 595.4,-298 595.4,-298 273.05,-298 273.05,-298 267.05,-298 261.05,-292 261.05,-286 261.05,-286 261.05,-232 261.05,-232 261.05,-226 267.05,-220 273.05,-220"/>
<text xml:space="preserve" text-anchor="middle" x="434.23" y="-282.6" font-family="Helvetica,sans-Serif" font-size="12.00">Post: moved by Hermes</text>
</g>
<!-- PM -->
<g id="node1" class="node">
<title>PM</title>
<path fill="#eef2ff" stroke="#6366f1" stroke-width="1.3" d="M411.1,-102.7C411.1,-102.7 275.8,-102.7 275.8,-102.7 269.8,-102.7 263.8,-96.7 263.8,-90.7 263.8,-90.7 263.8,-73.3 263.8,-73.3 263.8,-67.3 269.8,-61.3 275.8,-61.3 275.8,-61.3 411.1,-61.3 411.1,-61.3 417.1,-61.3 423.1,-67.3 423.1,-73.3 423.1,-73.3 423.1,-90.7 423.1,-90.7 423.1,-96.7 417.1,-102.7 411.1,-102.7"/>
<text xml:space="preserve" text-anchor="middle" x="343.45" y="-83.15" font-family="Helvetica,sans-Serif" font-size="13.00">Merge new branch</text>
<text xml:space="preserve" text-anchor="middle" x="343.45" y="-69.65" font-family="Helvetica,sans-Serif" font-size="13.00">commits and the base</text>
</g>
<!-- PT -->
<g id="node2" class="node">
<title>PT</title>
<path fill="#eef2ff" stroke="#6366f1" stroke-width="1.3" d="M584.4,-109.45C584.4,-109.45 479.1,-109.45 479.1,-109.45 473.1,-109.45 467.1,-103.45 467.1,-97.45 467.1,-97.45 467.1,-66.55 467.1,-66.55 467.1,-60.55 473.1,-54.55 479.1,-54.55 479.1,-54.55 584.4,-54.55 584.4,-54.55 590.4,-54.55 596.4,-60.55 596.4,-66.55 596.4,-66.55 596.4,-97.45 596.4,-97.45 596.4,-103.45 590.4,-109.45 584.4,-109.45"/>
<text xml:space="preserve" text-anchor="middle" x="531.75" y="-89.9" font-family="Helvetica,sans-Serif" font-size="13.00">Testing session</text>
<text xml:space="preserve" text-anchor="middle" x="531.75" y="-76.4" font-family="Helvetica,sans-Serif" font-size="13.00">play, fix, capture,</text>
<text xml:space="preserve" text-anchor="middle" x="531.75" y="-62.9" font-family="Helvetica,sans-Serif" font-size="13.00">write the post</text>
</g>
<!-- PM&#45;&gt;PT -->
<g id="edge1" class="edge">
<title>PM&#45;&gt;PT</title>
<path fill="none" stroke="#374151" stroke-width="1.8" d="M423.73,-82C434.42,-82 445.37,-82 455.98,-82"/>
<polygon fill="#374151" stroke="#374151" stroke-width="1.8" points="455.74,-84.8 463.74,-82 455.74,-79.2 455.74,-84.8"/>
</g>
<!-- PC -->
<g id="node3" class="node">
<title>PC</title>
<path fill="#eef2ff" stroke="#6366f1" stroke-width="1.3" d="M890.2,-102.7C890.2,-102.7 734.65,-102.7 734.65,-102.7 728.65,-102.7 722.65,-96.7 722.65,-90.7 722.65,-90.7 722.65,-73.3 722.65,-73.3 722.65,-67.3 728.65,-61.3 734.65,-61.3 734.65,-61.3 890.2,-61.3 890.2,-61.3 896.2,-61.3 902.2,-67.3 902.2,-73.3 902.2,-73.3 902.2,-90.7 902.2,-90.7 902.2,-96.7 896.2,-102.7 890.2,-102.7"/>
<text xml:space="preserve" text-anchor="middle" x="812.43" y="-83.15" font-family="Helvetica,sans-Serif" font-size="13.00">Post checkpoint</text>
<text xml:space="preserve" text-anchor="middle" x="812.43" y="-69.65" font-family="Helvetica,sans-Serif" font-size="13.00">typecheck, playtest, build</text>
</g>
<!-- PM&#45;&gt;PC -->
<g id="edge7" class="edge">
<title>PM&#45;&gt;PC</title>
<path fill="none" stroke="#6b7280" stroke-width="1.3" stroke-dasharray="5,2" d="M395.94,-103.26C416.73,-110.77 441.18,-118.27 464.1,-122 568.8,-139.04 598.38,-133.51 702.65,-114 713.99,-111.88 725.83,-109.05 737.36,-105.95"/>
<polygon fill="#6b7280" stroke="#6b7280" stroke-width="1.3" points="738.09,-108.66 745.06,-103.82 736.6,-103.26 738.09,-108.66"/>
<text xml:space="preserve" text-anchor="middle" x="531.75" y="-145.72" font-family="Helvetica,sans-Serif" font-size="11.00" fill="#6b7280">docs only: no session,</text>
<text xml:space="preserve" text-anchor="middle" x="531.75" y="-133.72" font-family="Helvetica,sans-Serif" font-size="11.00" fill="#6b7280">the checkpoint only builds</text>
</g>
<!-- PT&#45;&gt;PC -->
<g id="edge2" class="edge">
<title>PT&#45;&gt;PC</title>
<path fill="none" stroke="#374151" stroke-width="1.8" d="M597.03,-82C630.97,-82 673.38,-82 711.5,-82"/>
<polygon fill="#374151" stroke="#374151" stroke-width="1.8" points="711.41,-84.8 719.41,-82 711.41,-79.2 711.41,-84.8"/>
</g>
<!-- XD -->
<g id="node9" class="node">
<title>XD</title>
<path fill="#f3f4f6" stroke="#6b7280" stroke-width="1.3" d="M847.23,-36C847.23,-36 777.63,-36 777.63,-36 771.63,-36 765.63,-30 765.63,-24 765.63,-24 765.63,-12 765.63,-12 765.63,-6 771.63,0 777.63,0 777.63,0 847.23,0 847.23,0 853.23,0 859.23,-6 859.23,-12 859.23,-12 859.23,-24 859.23,-24 859.23,-30 853.23,-36 847.23,-36"/>
<text xml:space="preserve" text-anchor="middle" x="812.43" y="-12.4" font-family="Helvetica,sans-Serif" font-size="13.00">Design</text>
</g>
<!-- PT&#45;&gt;XD -->
<g id="edge10" class="edge">
<title>PT&#45;&gt;XD</title>
<path fill="none" stroke="#6b7280" stroke-width="1.3" stroke-dasharray="5,2" d="M597.03,-67.24C645.06,-56.21 710.03,-41.29 755.82,-30.77"/>
<polygon fill="#6b7280" stroke="#6b7280" stroke-width="1.3" points="756.2,-33.56 763.37,-29.04 754.95,-28.1 756.2,-33.56"/>
<text xml:space="preserve" text-anchor="middle" x="661.03" y="-62.85" font-family="Helvetica,sans-Serif" font-size="11.00" fill="#6b7280">plan wrong</text>
</g>
<!-- PC&#45;&gt;PT -->
<g id="edge5" class="edge">
<title>PC&#45;&gt;PT</title>
<path fill="none" stroke="#dc2626" stroke-width="1.3" stroke-dasharray="5,2" d="M722.09,-83.77C715.51,-83.86 708.98,-83.94 702.65,-84 665.65,-84.34 656.4,-84.43 619.4,-84 615.14,-83.95 610.76,-83.89 606.34,-83.82"/>
<polygon fill="#dc2626" stroke="#dc2626" stroke-width="1.3" points="606.65,-81.02 598.6,-83.68 606.55,-86.62 606.65,-81.02"/>
<text xml:space="preserve" text-anchor="middle" x="661.03" y="-97.84" font-family="Helvetica,sans-Serif" font-size="11.00" fill="#dc2626">failure: back into</text>
<text xml:space="preserve" text-anchor="middle" x="661.03" y="-85.84" font-family="Helvetica,sans-Serif" font-size="11.00" fill="#dc2626">the same session</text>
</g>
<!-- PC&#45;&gt;PC -->
<g id="edge6" class="edge">
<title>PC&#45;&gt;PC</title>
<path fill="none" stroke="#dc2626" stroke-width="1.3" stroke-dasharray="5,2" d="M787.66,-103.15C782.15,-115.8 790.41,-127.7 812.43,-127.7 828.59,-127.7 837.34,-121.28 838.67,-112.86"/>
<polygon fill="#dc2626" stroke="#dc2626" stroke-width="1.3" points="841.46,-112.59 837.49,-105.1 835.92,-113.43 841.46,-112.59"/>
<text xml:space="preserve" text-anchor="middle" x="812.43" y="-129.25" font-family="Helvetica,sans-Serif" font-size="11.00" fill="#dc2626">timeouts: rerun, up to 3</text>
</g>
<!-- PP -->
<g id="node4" class="node">
<title>PP</title>
<path fill="#fde68a" stroke="#b45309" stroke-width="1.3" d="M1091.9,-102.7C1091.9,-102.7 1022.3,-102.7 1022.3,-102.7 1016.3,-102.7 1010.3,-96.7 1010.3,-90.7 1010.3,-90.7 1010.3,-73.3 1010.3,-73.3 1010.3,-67.3 1016.3,-61.3 1022.3,-61.3 1022.3,-61.3 1091.9,-61.3 1091.9,-61.3 1097.9,-61.3 1103.9,-67.3 1103.9,-73.3 1103.9,-73.3 1103.9,-90.7 1103.9,-90.7 1103.9,-96.7 1097.9,-102.7 1091.9,-102.7"/>
<text xml:space="preserve" text-anchor="middle" x="1057.1" y="-83.15" font-family="Helvetica,sans-Serif" font-size="13.00">Post to</text>
<text xml:space="preserve" text-anchor="middle" x="1057.1" y="-69.65" font-family="Helvetica,sans-Serif" font-size="13.00">committee</text>
</g>
<!-- PC&#45;&gt;PP -->
<g id="edge3" class="edge">
<title>PC&#45;&gt;PP</title>
<path fill="none" stroke="#374151" stroke-width="1.8" d="M902.75,-82C934.99,-82 970.47,-82 999.18,-82"/>
<polygon fill="#374151" stroke="#374151" stroke-width="1.8" points="999.1,-84.8 1007.1,-82 999.1,-79.2 999.1,-84.8"/>
</g>
<!-- XS -->
<g id="node10" class="node">
<title>XS</title>
<path fill="#f3f4f6" stroke="#6b7280" stroke-width="1.3" d="M1097.75,-36C1097.75,-36 1016.45,-36 1016.45,-36 1010.45,-36 1004.45,-30 1004.45,-24 1004.45,-24 1004.45,-12 1004.45,-12 1004.45,-6 1010.45,0 1016.45,0 1016.45,0 1097.75,0 1097.75,0 1103.75,0 1109.75,-6 1109.75,-12 1109.75,-12 1109.75,-24 1109.75,-24 1109.75,-30 1103.75,-36 1097.75,-36"/>
<text xml:space="preserve" text-anchor="middle" x="1057.1" y="-12.4" font-family="Helvetica,sans-Serif" font-size="13.00">factory&#45;stuck</text>
</g>
<!-- PC&#45;&gt;XS -->
<g id="edge11" class="edge">
<title>PC&#45;&gt;XS</title>
<path fill="none" stroke="#6b7280" stroke-width="1.3" stroke-dasharray="5,2" d="M894.23,-60.69C926.83,-52.09 963.83,-42.33 994.23,-34.32"/>
<polygon fill="#6b7280" stroke="#6b7280" stroke-width="1.3" points="994.93,-37.03 1001.95,-32.28 993.5,-31.61 994.93,-37.03"/>
<text xml:space="preserve" text-anchor="middle" x="953.33" y="-53.47" font-family="Helvetica,sans-Serif" font-size="11.00" fill="#6b7280">budget spent</text>
</g>
<!-- QB -->
<g id="node5" class="node">
<title>QB</title>
<path fill="#eef2ff" stroke="#6366f1" stroke-width="1.3" d="M405.85,-269.7C405.85,-269.7 281.05,-269.7 281.05,-269.7 275.05,-269.7 269.05,-263.7 269.05,-257.7 269.05,-257.7 269.05,-240.3 269.05,-240.3 269.05,-234.3 275.05,-228.3 281.05,-228.3 281.05,-228.3 405.85,-228.3 405.85,-228.3 411.85,-228.3 417.85,-234.3 417.85,-240.3 417.85,-240.3 417.85,-257.7 417.85,-257.7 417.85,-263.7 411.85,-269.7 405.85,-269.7"/>
<text xml:space="preserve" text-anchor="middle" x="343.45" y="-250.15" font-family="Helvetica,sans-Serif" font-size="13.00">Build only</text>
<text xml:space="preserve" text-anchor="middle" x="343.45" y="-236.65" font-family="Helvetica,sans-Serif" font-size="13.00">no tests, no playtest</text>
</g>
<!-- QP -->
<g id="node6" class="node">
<title>QP</title>
<path fill="#fde68a" stroke="#b45309" stroke-width="1.3" d="M587.4,-269.7C587.4,-269.7 476.1,-269.7 476.1,-269.7 470.1,-269.7 464.1,-263.7 464.1,-257.7 464.1,-257.7 464.1,-240.3 464.1,-240.3 464.1,-234.3 470.1,-228.3 476.1,-228.3 476.1,-228.3 587.4,-228.3 587.4,-228.3 593.4,-228.3 599.4,-234.3 599.4,-240.3 599.4,-240.3 599.4,-257.7 599.4,-257.7 599.4,-263.7 593.4,-269.7 587.4,-269.7"/>
<text xml:space="preserve" text-anchor="middle" x="531.75" y="-250.15" font-family="Helvetica,sans-Serif" font-size="13.00">Post to committee</text>
<text xml:space="preserve" text-anchor="middle" x="531.75" y="-236.65" font-family="Helvetica,sans-Serif" font-size="13.00">no checks ran</text>
</g>
<!-- QB&#45;&gt;QP -->
<g id="edge4" class="edge">
<title>QB&#45;&gt;QP</title>
<path fill="none" stroke="#374151" stroke-width="1.8" d="M418.35,-249C429.78,-249 441.62,-249 453.13,-249"/>
<polygon fill="#374151" stroke="#374151" stroke-width="1.8" points="452.87,-251.8 460.87,-249 452.87,-246.2 452.87,-251.8"/>
</g>
<!-- XH -->
<g id="node7" class="node">
<title>XH</title>
<path fill="#f3f4f6" stroke="#6b7280" stroke-width="1.3" d="M119.55,-269.7C119.55,-269.7 12,-269.7 12,-269.7 6,-269.7 0,-263.7 0,-257.7 0,-257.7 0,-240.3 0,-240.3 0,-234.3 6,-228.3 12,-228.3 12,-228.3 119.55,-228.3 119.55,-228.3 125.55,-228.3 131.55,-234.3 131.55,-240.3 131.55,-240.3 131.55,-257.7 131.55,-257.7 131.55,-263.7 125.55,-269.7 119.55,-269.7"/>
<text xml:space="preserve" text-anchor="middle" x="65.78" y="-250.15" font-family="Helvetica,sans-Serif" font-size="13.00">Hermes</text>
<text xml:space="preserve" text-anchor="middle" x="65.78" y="-236.65" font-family="Helvetica,sans-Serif" font-size="13.00">move to Approval</text>
</g>
<!-- XH&#45;&gt;QB -->
<g id="edge8" class="edge">
<title>XH&#45;&gt;QB</title>
<path fill="none" stroke="#6b7280" stroke-width="1.3" stroke-dasharray="5,2" d="M132.11,-249C170.06,-249 218.26,-249 258.94,-249"/>
<polygon fill="#6b7280" stroke="#6b7280" stroke-width="1.3" points="258.87,-251.8 266.87,-249 258.87,-246.2 258.87,-251.8"/>
</g>
<!-- XA -->
<g id="node8" class="node">
<title>XA</title>
<path fill="#f3f4f6" stroke="#6b7280" stroke-width="1.3" d="M101.18,-102.7C101.18,-102.7 30.38,-102.7 30.38,-102.7 24.38,-102.7 18.38,-96.7 18.38,-90.7 18.38,-90.7 18.38,-73.3 18.38,-73.3 18.38,-67.3 24.38,-61.3 30.38,-61.3 30.38,-61.3 101.18,-61.3 101.18,-61.3 107.18,-61.3 113.18,-67.3 113.18,-73.3 113.18,-73.3 113.18,-90.7 113.18,-90.7 113.18,-96.7 107.18,-102.7 101.18,-102.7"/>
<text xml:space="preserve" text-anchor="middle" x="65.78" y="-83.15" font-family="Helvetica,sans-Serif" font-size="13.00">Approval</text>
<text xml:space="preserve" text-anchor="middle" x="65.78" y="-69.65" font-family="Helvetica,sans-Serif" font-size="13.00">patch reply</text>
</g>
<!-- XA&#45;&gt;PM -->
<g id="edge9" class="edge">
<title>XA&#45;&gt;PM</title>
<path fill="none" stroke="#6b7280" stroke-width="1.3" stroke-dasharray="5,2" d="M113.54,-82C151.76,-82 206.89,-82 253.47,-82"/>
<polygon fill="#6b7280" stroke="#6b7280" stroke-width="1.3" points="253.3,-84.8 261.3,-82 253.3,-79.2 253.3,-84.8"/>
<text xml:space="preserve" text-anchor="middle" x="197.68" y="-83.55" font-family="Helvetica,sans-Serif" font-size="11.00" fill="#6b7280">the reply is the task</text>
</g>
</g>
</svg>
