<?xml version="1.0" encoding="UTF-8" standalone="no"?>
<!-- source-sha256: 685742f07bff82dd0eed94de22168fe55a7bb7f78143bd454f44c0111f0c9ad1 -->
<!DOCTYPE svg PUBLIC "-//W3C//DTD SVG 1.1//EN"
 "http://www.w3.org/Graphics/SVG/1.1/DTD/svg11.dtd">
<!-- Generated by graphviz version 2.43.0 (0)
 -->
<!-- Title: tick Pages: 1 -->
<svg width="1430pt" height="137pt"
 viewBox="0.00 0.00 1430.20 137.20" xmlns="http://www.w3.org/2000/svg" xmlns:xlink="http://www.w3.org/1999/xlink">
<g id="graph0" class="graph" transform="scale(1 1) rotate(0) translate(21.6 115.6)">
<title>tick</title>
<polygon fill="white" stroke="transparent" points="-21.6,21.6 -21.6,-115.6 1408.6,-115.6 1408.6,21.6 -21.6,21.6"/>
<!-- H -->
<g id="node1" class="node">
<title>H</title>
<path fill="#eef2ff" stroke="#6366f1" stroke-width="1.3" d="M68,-87C68,-87 12,-87 12,-87 6,-87 0,-81 0,-75 0,-75 0,-57 0,-57 0,-51 6,-45 12,-45 12,-45 68,-45 68,-45 74,-45 80,-51 80,-57 80,-57 80,-75 80,-75 80,-81 74,-87 68,-87"/>
<text text-anchor="middle" x="40" y="-69.6" font-family="Helvetica,sans-Serif" font-size="13.00">Write</text>
<text text-anchor="middle" x="40" y="-55.6" font-family="Helvetica,sans-Serif" font-size="13.00">health file</text>
</g>
<!-- Q -->
<g id="node2" class="node">
<title>Q</title>
<polygon fill="#eef2ff" stroke="#6366f1" stroke-width="1.3" points="193,-94 117,-66 193,-38 269,-66 193,-94"/>
<text text-anchor="middle" x="193" y="-62.6" font-family="Helvetica,sans-Serif" font-size="13.00">Paused?</text>
</g>
<!-- H&#45;&gt;Q -->
<g id="edge1" class="edge">
<title>H&#45;&gt;Q</title>
<path fill="none" stroke="#374151" stroke-width="1.8" d="M80.28,-66C89.17,-66 98.95,-66 108.9,-66"/>
<polygon fill="#374151" stroke="#374151" stroke-width="1.8" points="108.91,-68.8 116.91,-66 108.91,-63.2 108.91,-68.8"/>
</g>
<!-- IN -->
<g id="node3" class="node">
<title>IN</title>
<path fill="#eef2ff" stroke="#6366f1" stroke-width="1.3" d="M381,-87C381,-87 318,-87 318,-87 312,-87 306,-81 306,-75 306,-75 306,-57 306,-57 306,-51 312,-45 318,-45 318,-45 381,-45 381,-45 387,-45 393,-51 393,-57 393,-57 393,-75 393,-75 393,-81 387,-87 381,-87"/>
<text text-anchor="middle" x="349.5" y="-69.6" font-family="Helvetica,sans-Serif" font-size="13.00">Run inbox</text>
<text text-anchor="middle" x="349.5" y="-55.6" font-family="Helvetica,sans-Serif" font-size="13.00">commands</text>
</g>
<!-- Q&#45;&gt;IN -->
<g id="edge2" class="edge">
<title>Q&#45;&gt;IN</title>
<path fill="none" stroke="#374151" stroke-width="1.8" d="M269.44,-66C279.06,-66 288.71,-66 297.81,-66"/>
<polygon fill="#374151" stroke="#374151" stroke-width="1.8" points="297.99,-68.8 305.99,-66 297.99,-63.2 297.99,-68.8"/>
</g>
<!-- STOP -->
<g id="node10" class="node">
<title>STOP</title>
<path fill="#f3f4f6" stroke="#6b7280" stroke-width="1.3" d="M1217,-36C1217,-36 1143,-36 1143,-36 1137,-36 1131,-30 1131,-24 1131,-24 1131,-12 1131,-12 1131,-6 1137,0 1143,0 1143,0 1217,0 1217,0 1223,0 1229,-6 1229,-12 1229,-12 1229,-24 1229,-24 1229,-30 1223,-36 1217,-36"/>
<text text-anchor="middle" x="1180" y="-14.6" font-family="Helvetica,sans-Serif" font-size="13.00">Skip the rest</text>
</g>
<!-- Q&#45;&gt;STOP -->
<g id="edge9" class="edge">
<title>Q&#45;&gt;STOP</title>
<path fill="none" stroke="#6b7280" stroke-width="1.3" stroke-dasharray="5,2" d="M232.61,-52.45C253.96,-45.59 281.13,-37.92 306,-34 354.35,-26.38 876.46,-15.75 1020,-14 1061.33,-13.5 1071.69,-12.75 1113,-14 1116.14,-14.09 1119.36,-14.22 1122.61,-14.35"/>
<polygon fill="#6b7280" stroke="#6b7280" stroke-width="1.3" points="1122.59,-17.16 1130.71,-14.74 1122.85,-11.56 1122.59,-17.16"/>
<text text-anchor="middle" x="608.5" y="-27.2" font-family="Helvetica,sans-Serif" font-size="11.00" fill="#6b7280">yes</text>
</g>
<!-- J -->
<g id="node4" class="node">
<title>J</title>
<path fill="#eef2ff" stroke="#6366f1" stroke-width="1.3" d="M520,-87C520,-87 442,-87 442,-87 436,-87 430,-81 430,-75 430,-75 430,-57 430,-57 430,-51 436,-45 442,-45 442,-45 520,-45 520,-45 526,-45 532,-51 532,-57 532,-57 532,-75 532,-75 532,-81 526,-87 520,-87"/>
<text text-anchor="middle" x="481" y="-69.6" font-family="Helvetica,sans-Serif" font-size="13.00">Check jobs</text>
<text text-anchor="middle" x="481" y="-55.6" font-family="Helvetica,sans-Serif" font-size="13.00">kill or resume</text>
</g>
<!-- IN&#45;&gt;J -->
<g id="edge3" class="edge">
<title>IN&#45;&gt;J</title>
<path fill="none" stroke="#374151" stroke-width="1.8" d="M393.26,-66C402.27,-66 411.91,-66 421.38,-66"/>
<polygon fill="#374151" stroke="#374151" stroke-width="1.8" points="421.64,-68.8 429.64,-66 421.64,-63.2 421.64,-68.8"/>
</g>
<!-- K -->
<g id="node5" class="node">
<title>K</title>
<path fill="#eef2ff" stroke="#6366f1" stroke-width="1.3" d="M636,-84C636,-84 581,-84 581,-84 575,-84 569,-78 569,-72 569,-72 569,-60 569,-60 569,-54 575,-48 581,-48 581,-48 636,-48 636,-48 642,-48 648,-54 648,-60 648,-60 648,-72 648,-72 648,-78 642,-84 636,-84"/>
<text text-anchor="middle" x="608.5" y="-62.6" font-family="Helvetica,sans-Serif" font-size="13.00">Intake</text>
</g>
<!-- J&#45;&gt;K -->
<g id="edge4" class="edge">
<title>J&#45;&gt;K</title>
<path fill="none" stroke="#374151" stroke-width="1.8" d="M532.32,-66C541.62,-66 551.29,-66 560.48,-66"/>
<polygon fill="#374151" stroke="#374151" stroke-width="1.8" points="560.76,-68.8 568.76,-66 560.76,-63.2 560.76,-68.8"/>
</g>
<!-- CL -->
<g id="node6" class="node">
<title>CL</title>
<path fill="#eef2ff" stroke="#6366f1" stroke-width="1.3" d="M774,-87C774,-87 697,-87 697,-87 691,-87 685,-81 685,-75 685,-75 685,-57 685,-57 685,-51 691,-45 697,-45 697,-45 774,-45 774,-45 780,-45 786,-51 786,-57 786,-57 786,-75 786,-75 786,-81 780,-87 774,-87"/>
<text text-anchor="middle" x="735.5" y="-69.6" font-family="Helvetica,sans-Serif" font-size="13.00">Clean builds,</text>
<text text-anchor="middle" x="735.5" y="-55.6" font-family="Helvetica,sans-Serif" font-size="13.00">clones, logs</text>
</g>
<!-- K&#45;&gt;CL -->
<g id="edge5" class="edge">
<title>K&#45;&gt;CL</title>
<path fill="none" stroke="#374151" stroke-width="1.8" d="M648.02,-66C657.1,-66 666.98,-66 676.7,-66"/>
<polygon fill="#374151" stroke="#374151" stroke-width="1.8" points="676.81,-68.8 684.81,-66 676.81,-63.2 676.81,-68.8"/>
</g>
<!-- DSK -->
<g id="node7" class="node">
<title>DSK</title>
<polygon fill="#eef2ff" stroke="#6366f1" stroke-width="1.3" points="897,-94 823,-66 897,-38 971,-66 897,-94"/>
<text text-anchor="middle" x="897" y="-62.6" font-family="Helvetica,sans-Serif" font-size="13.00">Disk ok?</text>
</g>
<!-- CL&#45;&gt;DSK -->
<g id="edge6" class="edge">
<title>CL&#45;&gt;DSK</title>
<path fill="none" stroke="#374151" stroke-width="1.8" d="M786.09,-66C795.17,-66 804.85,-66 814.57,-66"/>
<polygon fill="#374151" stroke="#374151" stroke-width="1.8" points="814.73,-68.8 822.73,-66 814.73,-63.2 814.73,-68.8"/>
</g>
<!-- PK -->
<g id="node8" class="node">
<title>PK</title>
<path fill="#eef2ff" stroke="#6366f1" stroke-width="1.3" d="M1101,-94C1101,-94 1032,-94 1032,-94 1026,-94 1020,-88 1020,-82 1020,-82 1020,-50 1020,-50 1020,-44 1026,-38 1032,-38 1032,-38 1101,-38 1101,-38 1107,-38 1113,-44 1113,-50 1113,-50 1113,-82 1113,-82 1113,-88 1107,-94 1101,-94"/>
<text text-anchor="middle" x="1066.5" y="-76.6" font-family="Helvetica,sans-Serif" font-size="13.00">Pick jobs</text>
<text text-anchor="middle" x="1066.5" y="-62.6" font-family="Helvetica,sans-Serif" font-size="13.00">by priority,</text>
<text text-anchor="middle" x="1066.5" y="-48.6" font-family="Helvetica,sans-Serif" font-size="13.00">Checks first</text>
</g>
<!-- DSK&#45;&gt;PK -->
<g id="edge7" class="edge">
<title>DSK&#45;&gt;PK</title>
<path fill="none" stroke="#374151" stroke-width="1.8" d="M971.47,-66C984.88,-66 998.65,-66 1011.37,-66"/>
<polygon fill="#374151" stroke="#374151" stroke-width="1.8" points="1011.57,-68.8 1019.57,-66 1011.57,-63.2 1011.57,-68.8"/>
</g>
<!-- DSK&#45;&gt;STOP -->
<g id="edge10" class="edge">
<title>DSK&#45;&gt;STOP</title>
<path fill="none" stroke="#6b7280" stroke-width="1.3" stroke-dasharray="5,2" d="M933.95,-51.86C957.93,-43.09 990.37,-32.48 1020,-27 1053.82,-20.74 1092.31,-18.44 1122.95,-17.73"/>
<polygon fill="#6b7280" stroke="#6b7280" stroke-width="1.3" points="1123.02,-20.53 1130.97,-17.57 1122.91,-14.93 1123.02,-20.53"/>
<text text-anchor="middle" x="995.5" y="-37.2" font-family="Helvetica,sans-Serif" font-size="11.00" fill="#6b7280">no</text>
</g>
<!-- ST -->
<g id="node9" class="node">
<title>ST</title>
<path fill="#eef2ff" stroke="#6366f1" stroke-width="1.3" d="M1375,-94C1375,-94 1259,-94 1259,-94 1253,-94 1247,-88 1247,-82 1247,-82 1247,-50 1247,-50 1247,-44 1253,-38 1259,-38 1259,-38 1375,-38 1375,-38 1381,-38 1387,-44 1387,-50 1387,-50 1387,-82 1387,-82 1387,-88 1381,-94 1375,-94"/>
<text text-anchor="middle" x="1317" y="-76.6" font-family="Helvetica,sans-Serif" font-size="13.00">Start each job</text>
<text text-anchor="middle" x="1317" y="-62.6" font-family="Helvetica,sans-Serif" font-size="13.00">that fits,</text>
<text text-anchor="middle" x="1317" y="-48.6" font-family="Helvetica,sans-Serif" font-size="13.00">one heavy at a time</text>
</g>
<!-- PK&#45;&gt;ST -->
<g id="edge8" class="edge">
<title>PK&#45;&gt;ST</title>
<path fill="none" stroke="#374151" stroke-width="1.8" d="M1113.08,-66C1148.15,-66 1197.43,-66 1238.65,-66"/>
<polygon fill="#374151" stroke="#374151" stroke-width="1.8" points="1238.77,-68.8 1246.77,-66 1238.77,-63.2 1238.77,-68.8"/>
</g>
</g>
</svg>
